<svg id="Layer_1" data-name="Layer 1" xmlns="http://www.w3.org/2000/svg" xmlns:xlink="http://www.w3.org/1999/xlink" viewBox="0 0 610.75 423.92"><defs><style>.cls-1,.cls-5,.cls-7{fill:none;}.cls-2,.cls-6{fill:#7ec2c3;}.cls-3{clip-path:url(#clip-path);}.cls-4,.cls-8{fill:#fff;}.cls-4{opacity:0.5;}.cls-5,.cls-6,.cls-7,.cls-8{stroke:#283535;}.cls-5,.cls-6{stroke-width:6.68px;}.cls-10,.cls-6,.cls-7{stroke-linecap:round;stroke-linejoin:round;}.cls-7{stroke-width:5.56px;}.cls-8{stroke-width:4.97px;}.cls-9{fill:#283535;}.cls-10{fill:#283636;stroke:#283636;stroke-width:3.77px;}</style><clipPath id="clip-path" transform="translate(-1792.08 -191.38)"><path class="cls-1" d="M1876.09,349.74c0-124.26,100.73-155,225-155s225,30.76,225,155-100.73,235.64-225,235.64S1876.09,474,1876.09,349.74Z"/></clipPath></defs><title>bicho-big</title><path class="cls-2" d="M1876.09,349.74c0-124.26,100.73-155,225-155s225,30.76,225,155-100.73,235.64-225,235.64S1876.09,474,1876.09,349.74Z" transform="translate(-1792.08 -191.38)"/><g class="cls-3"><path class="cls-4" d="M2402.83,467.47c0-77.81-136.72-200.55-305.37-200.55s-305.38,122.74-305.38,200.55S1928.79,615.3,2097.46,615.3,2402.83,545.27,2402.83,467.47Z" transform="translate(-1792.08 -191.38)"/></g><path class="cls-5" d="M1876.09,349.74c0-124.26,100.73-155,225-155s225,30.76,225,155-100.73,235.64-225,235.64S1876.09,474,1876.09,349.74Z" transform="translate(-1792.08 -191.38)"/><path class="cls-6" d="M1921.67,462s-23.86,15.52-44.84,7.25c0,0-16.17,26.4,18.55,60.1,0,0,19.91,5.93,44.28-37.38" transform="translate(-1792.08 -191.38)"/><path class="cls-6" d="M2274.42,462s23.86,15.52,44.85,7.25c0,0,16.17,26.4-18.56,60.1,0,0-19.9,5.93-44.28-37.38" transform="translate(-1792.08 -191.38)"/><path class="cls-7" d="M2033.13,501.71c-1.33,5.76-7.55,11.33-13.31,10h0c-5.77-1.34-8.91-9.06-7.57-14.83" transform="translate(-1792.08 -191.38)"/><path class="cls-7" d="M1997.4,454.36c-3.19,5-10.9,8.16-15.89,5h0c-5-3.18-5.37-11.51-2.18-16.5" transform="translate(-1792.08 -191.38)"/><path class="cls-7" d="M2204.35,456.86c2.5,5.36,9.73,9.53,15.09,7h0c5.37-2.5,6.84-10.7,4.34-16.07" transform="translate(-1792.08 -191.38)"/><path class="cls-7" d="M2123.93,504.24c-0.36,5.91-5.55,12.42-11.46,12.08h0c-5.91-.35-10.3-7.45-9.94-13.36" transform="translate(-1792.08 -191.38)"/><path class="cls-7" d="M2203,497.11c2.15,5.52.17,13.61-5.35,15.77h0c-5.51,2.15-12.47-2.45-14.62-8" transform="translate(-1792.08 -191.38)"/><path class="cls-7" d="M2159.67,535.34c1.3,5.77-1.88,13.48-7.65,14.78h0c-5.77,1.3-12-4.3-13.26-10.06" transform="translate(-1792.08 -191.38)"/><path class="cls-7" d="M2069.37,540.91c-0.63,5.89-6.12,12.16-12,11.54h0c-5.88-.62-9.93-7.91-9.31-13.79" transform="translate(-1792.08 -191.38)"/><path class="cls-8" d="M1940.35,285.49a42.06,42.06,0,1,1,42.06,42.06A42.06,42.06,0,0,1,1940.35,285.49Z" transform="translate(-1792.08 -191.38)"/><ellipse class="cls-9" cx="189.59" cy="94.11" rx="10.01" ry="22.76"/><path class="cls-8" d="M2178.82,285.49a42.06,42.06,0,1,1,42.06,42.06A42.06,42.06,0,0,1,2178.82,285.49Z" transform="translate(-1792.08 -191.38)"/><ellipse class="cls-9" cx="428.07" cy="94.11" rx="10.01" ry="22.76"/><path class="cls-10" d="M2150.25,316.63l-97.81,20.65s5.57,49.85,60.61,46C2113.05,383.3,2163.45,379.08,2150.25,316.63Z" transform="translate(-1792.08 -191.38)"/></svg>