<svg id="Layer_1" data-name="Layer 1" xmlns="http://www.w3.org/2000/svg" xmlns:xlink="http://www.w3.org/1999/xlink" viewBox="0 0 252.66 254.68">
  <defs>
    <clipPath id="clip-path" transform="translate(-871.23 -1005.84)">
      <path d="M903.91,1157.21c0-48.34,39.18-60.3,87.52-60.3s87.52,12,87.52,60.3-39.18,91.66-87.52,91.66S903.91,1205.55,903.91,1157.21Z" style="fill: none"/>
    </clipPath>
  </defs>
  <title>character-1</title>
  <g>
    <g>
      <g>
        <path d="M903.91,1157.21c0-48.34,39.18-60.3,87.52-60.3s87.52,12,87.52,60.3-39.18,91.66-87.52,91.66S903.91,1205.55,903.91,1157.21Z" transform="translate(-871.23 -1005.84)" style="fill: #7ec2c3"/>
        <g style="clip-path: url(#clip-path)">
          <path d="M1108.82,1203c0-30.27-53.19-78-118.79-78s-118.79,47.75-118.79,78,53.18,57.51,118.79,57.51S1108.82,1233.28,1108.82,1203Z" transform="translate(-871.23 -1005.84)" style="fill: #fff;opacity: 0.5"/>
        </g>
        <path d="M903.91,1157.21c0-48.34,39.18-60.3,87.52-60.3s87.52,12,87.52,60.3-39.18,91.66-87.52,91.66S903.91,1205.55,903.91,1157.21Z" transform="translate(-871.23 -1005.84)" style="fill: none;stroke: #283535;stroke-width: 2px"/>
        <path d="M921.65,1200.89s-9.28,6-17.44,2.82c0,0-6.29,10.27,7.22,23.38,0,0,7.74,2.31,17.23-14.54" transform="translate(-871.23 -1005.84)" style="fill: #7ec2c3;stroke: #283535;stroke-linecap: round;stroke-linejoin: round;stroke-width: 2px"/>
        <path d="M1058.87,1200.89s9.28,6,17.45,2.82c0,0,6.29,10.27-7.22,23.38,0,0-7.74,2.31-17.23-14.54" transform="translate(-871.23 -1005.84)" style="fill: #7ec2c3;stroke: #283535;stroke-linecap: round;stroke-linejoin: round;stroke-width: 2px"/>
        <path d="M965,1216.33c-0.52,2.24-2.94,4.41-5.18,3.89h0c-2.24-.52-3.47-3.52-2.95-5.77" transform="translate(-871.23 -1005.84)" style="fill: none;stroke: #283535;stroke-linecap: round;stroke-linejoin: round;stroke-width: 2px"/>
        <path d="M951.1,1197.91c-1.24,1.94-4.24,3.17-6.18,1.93h0c-1.94-1.24-2.09-4.48-.85-6.42" transform="translate(-871.23 -1005.84)" style="fill: none;stroke: #283535;stroke-linecap: round;stroke-linejoin: round;stroke-width: 2px"/>
        <path d="M1031.61,1198.88c1,2.09,3.78,3.71,5.87,2.73h0c2.09-1,2.66-4.16,1.69-6.25" transform="translate(-871.23 -1005.84)" style="fill: none;stroke: #283535;stroke-linecap: round;stroke-linejoin: round;stroke-width: 2px"/>
        <path d="M1000.33,1217.31c-0.14,2.3-2.16,4.83-4.46,4.7h0c-2.3-.14-4-2.9-3.87-5.2" transform="translate(-871.23 -1005.84)" style="fill: none;stroke: #283535;stroke-linecap: round;stroke-linejoin: round;stroke-width: 2px"/>
        <path d="M1031.08,1214.54c0.84,2.15.07,5.3-2.08,6.14h0c-2.14.84-4.85-1-5.69-3.1" transform="translate(-871.23 -1005.84)" style="fill: none;stroke: #283535;stroke-linecap: round;stroke-linejoin: round;stroke-width: 2px"/>
        <path d="M1014.23,1229.41c0.51,2.25-.73,5.24-3,5.75h0c-2.25.51-4.65-1.67-5.16-3.91" transform="translate(-871.23 -1005.84)" style="fill: none;stroke: #283535;stroke-linecap: round;stroke-linejoin: round;stroke-width: 2px"/>
        <path d="M979.1,1231.58c-0.24,2.29-2.38,4.73-4.67,4.49h0c-2.29-.24-3.86-3.08-3.62-5.37" transform="translate(-871.23 -1005.84)" style="fill: none;stroke: #283535;stroke-linecap: round;stroke-linejoin: round;stroke-width: 2px"/>
      </g>
      <path d="M1022.05,1142.93c1-6.42,7.43-13,13.85-11.94h0c6.42,1,10.44,9.27,9.4,15.69" transform="translate(-871.23 -1005.84)" style="fill: none;stroke: #283535;stroke-linecap: round;stroke-linejoin: round;stroke-width: 2px"/>
      <path d="M960,1141.54c-1.07-6.41-7.5-12.93-13.9-11.87h0c-6.41,1.06-10.39,9.32-9.32,15.73" transform="translate(-871.23 -1005.84)" style="fill: none;stroke: #283535;stroke-linecap: round;stroke-linejoin: round;stroke-width: 2px"/>
      <path d="M978.42,1159.79s17.83,3,27-10C1005.43,1149.78,987.76,1154.45,978.42,1159.79Z" transform="translate(-871.23 -1005.84)" style="fill: #283535;stroke: #283535;stroke-linecap: round;stroke-linejoin: round;stroke-width: 2px"/>
    </g>
    <g>
      <circle cx="1097.79" cy="1031.94" r="26.1" transform="translate(-1195.69 523.36) rotate(-62.5)" style="fill: #7ec2c3"/>
      <path d="M1108.71,1017.06c0,4.33-4.84.13-11.22,0.08s-11.9,4.07-11.86-.26,5.23-6.81,11.6-6.76S1108.74,1012.73,1108.71,1017.06Z" transform="translate(-871.23 -1005.84)" style="fill: #fff"/>
    </g>
    <circle cx="1080.84" cy="1090.45" r="13.81" transform="translate(-1256.67 539.97) rotate(-62.51)" style="fill: #7ec2c3"/>
  </g>
</svg>
