<svg id="Layer_1" data-name="Layer 1" xmlns="http://www.w3.org/2000/svg" xmlns:xlink="http://www.w3.org/1999/xlink" viewBox="0 0 760.36 525.6"><defs><style>.cls-1,.cls-5,.cls-7{fill:none;}.cls-2,.cls-6{fill:#7ec2c3;}.cls-3{clip-path:url(#clip-path);}.cls-4,.cls-8{fill:#fff;}.cls-4{opacity:0.5;}.cls-5,.cls-6,.cls-7,.cls-8{stroke:#283535;}.cls-10,.cls-5,.cls-6,.cls-7,.cls-8{stroke-width:4px;}.cls-10,.cls-6,.cls-7{stroke-linecap:round;stroke-linejoin:round;}.cls-9{fill:#283535;}.cls-10{fill:#283636;stroke:#283636;}</style><clipPath id="clip-path" transform="translate(-239.36 -5266.85)"><path class="cls-1" d="M344,5461.83c0-154.7,125.4-193,280.1-193s280.11,38.29,280.11,193S778.75,5755.2,624,5755.2,344,5616.53,344,5461.83Z"/></clipPath></defs><title>character-3</title><path class="cls-2" d="M344,5461.83c0-154.7,125.4-193,280.1-193s280.11,38.29,280.11,193S778.75,5755.2,624,5755.2,344,5616.53,344,5461.83Z" transform="translate(-239.36 -5266.85)"/><g class="cls-3"><path class="cls-4" d="M999.72,5608.4c0-96.86-170.21-249.67-380.17-249.67S239.36,5511.54,239.36,5608.4s170.21,184,380.19,184S999.72,5705.27,999.72,5608.4Z" transform="translate(-239.36 -5266.85)"/></g><path class="cls-5" d="M344,5461.83c0-154.7,125.4-193,280.1-193s280.11,38.29,280.11,193S778.75,5755.2,624,5755.2,344,5616.53,344,5461.83Z" transform="translate(-239.36 -5266.85)"/><path class="cls-6" d="M400.7,5601.62s-29.7,19.32-55.83,9c0,0-20.13,32.87,23.1,74.82,0,0,24.78,7.39,55.13-46.54" transform="translate(-239.36 -5266.85)"/><path class="cls-6" d="M839.86,5601.62s29.71,19.32,55.84,9c0,0,20.13,32.87-23.1,74.82,0,0-24.78,7.39-55.13-46.54" transform="translate(-239.36 -5266.85)"/><path class="cls-7" d="M539.47,5651c-1.66,7.17-9.4,14.1-16.57,12.44h0c-7.18-1.66-11.09-11.28-9.43-18.46" transform="translate(-239.36 -5266.85)"/><path class="cls-7" d="M495,5592.09c-4,6.21-13.58,10.16-19.78,6.19h0c-6.22-4-6.68-14.33-2.72-20.54" transform="translate(-239.36 -5266.85)"/><path class="cls-7" d="M752.62,5595.2c3.11,6.68,12.11,11.86,18.79,8.75h0c6.68-3.12,8.51-13.32,5.41-20" transform="translate(-239.36 -5266.85)"/><path class="cls-7" d="M652.51,5654.19c-0.44,7.35-6.91,15.46-14.26,15h0c-7.35-.44-12.82-9.27-12.37-16.63" transform="translate(-239.36 -5266.85)"/><path class="cls-7" d="M750.94,5645.3c2.68,6.87.21,16.95-6.66,19.64h0c-6.86,2.68-15.52-3-18.2-9.92" transform="translate(-239.36 -5266.85)"/><path class="cls-7" d="M697,5692.9c1.62,7.19-2.34,16.78-9.53,18.4h0c-7.19,1.62-14.88-5.35-16.5-12.53" transform="translate(-239.36 -5266.85)"/><path class="cls-7" d="M584.58,5699.84c-0.78,7.33-7.62,15.14-15,14.36h0c-7.32-.78-12.36-9.85-11.59-17.17" transform="translate(-239.36 -5266.85)"/><path class="cls-8" d="M424,5381.85a52.36,52.36,0,1,1,52.36,52.36A52.37,52.37,0,0,1,424,5381.85Z" transform="translate(-239.36 -5266.85)"/><ellipse class="cls-9" cx="236.04" cy="115" rx="12.46" ry="28.33"/><path class="cls-8" d="M720.84,5381.85a52.36,52.36,0,1,1,52.36,52.36A52.37,52.37,0,0,1,720.84,5381.85Z" transform="translate(-239.36 -5266.85)"/><ellipse class="cls-9" cx="532.92" cy="115" rx="12.46" ry="28.33"/><path class="cls-10" d="M685.27,5420.62L563.5,5446.33s6.94,62.06,75.46,57.3C639,5503.62,701.71,5498.36,685.27,5420.62Z" transform="translate(-239.36 -5266.85)"/></svg>