<svg id="Layer_1" data-name="Layer 1" xmlns="http://www.w3.org/2000/svg" xmlns:xlink="http://www.w3.org/1999/xlink" viewBox="0 0 299.62 322.89"><defs><style>.cls-1,.cls-12,.cls-5{fill:none;}.cls-2,.cls-6{fill:#7ec2c3;}.cls-3{clip-path:url(#clip-path);}.cls-14,.cls-4,.cls-7{fill:#fff;}.cls-4{opacity:0.5;}.cls-11,.cls-12,.cls-5,.cls-6,.cls-7{stroke:#283535;stroke-width:2px;}.cls-11,.cls-12,.cls-6{stroke-linecap:round;stroke-linejoin:round;}.cls-8{clip-path:url(#clip-path-2);}.cls-11,.cls-9{fill:#283535;}.cls-10{clip-path:url(#clip-path-3);}.cls-13{opacity:0.48;}</style><clipPath id="clip-path" transform="translate(-890.72 -1713.59)"><path class="cls-1" d="M1012.18,1947c-39.44,23.3-83.64,6.28-106.94-33.16s-16.89-86.37,22.56-109.68,93.69-12.22,117,27.23S1051.62,1923.71,1012.18,1947Z"/></clipPath><clipPath id="clip-path-2" transform="translate(-890.72 -1713.59)"><circle class="cls-1" cx="967.51" cy="1921.28" r="13.12" transform="translate(-842.72 759.19) rotate(-30.57)"/></clipPath><clipPath id="clip-path-3" transform="translate(-890.72 -1713.59)"><circle class="cls-1" cx="923.21" cy="1853.69" r="13.12" transform="translate(-814.55 727.34) rotate(-30.58)"/></clipPath></defs><title>character-2</title><path class="cls-2" d="M1012.18,1947c-39.44,23.3-83.64,6.28-106.94-33.16s-16.89-86.37,22.56-109.68,93.69-12.22,117,27.23S1051.62,1923.71,1012.18,1947Z" transform="translate(-890.72 -1713.59)"/><g class="cls-3"><path class="cls-4" d="M950.76,1757.73c-24.7,14.59-38,81-6.39,134.54s96.23,73.92,120.93,59.33,21.28-71.12-10.35-124.66S975.46,1743.14,950.76,1757.73Z" transform="translate(-890.72 -1713.59)"/></g><path class="cls-5" d="M1012.18,1947c-39.44,23.3-83.64,6.28-106.94-33.16s-16.89-86.37,22.56-109.68,93.69-12.22,117,27.23S1051.62,1923.71,1012.18,1947Z" transform="translate(-890.72 -1713.59)"/><path class="cls-6" d="M1039.27,1911.49s9.4,4.67,10.71,12.88c0,0,11.41.18,15.6-17.16,0,0-1.85-7.43-20.17-7" transform="translate(-890.72 -1713.59)"/><path class="cls-6" d="M973.12,1799.51s0.45-10.48-6.11-15.6c0,0,5.35-10.08,22.56-5.38,0,0,5.61,5.2-3.56,21.07" transform="translate(-890.72 -1713.59)"/><circle class="cls-7" cx="967.51" cy="1921.28" r="13.12" transform="translate(-1733.44 -954.4) rotate(-30.57)"/><g class="cls-8"><ellipse class="cls-9" cx="960.73" cy="1925.81" rx="7.05" ry="3.1" transform="translate(-1783.18 -882.05) rotate(-32.93)"/></g><circle class="cls-7" cx="923.21" cy="1853.69" r="13.12" transform="translate(-1705.27 -986.25) rotate(-30.58)"/><g class="cls-10"><ellipse class="cls-9" cx="916.17" cy="1858.4" rx="7.05" ry="3.1" transform="translate(-1753.7 -917.1) rotate(-32.93)"/></g><path class="cls-11" d="M942,1872.48l22,24.06s13.08-9.84,2.87-24.68C966.9,1871.87,957.35,1858.4,942,1872.48Z" transform="translate(-890.72 -1713.59)"/><path class="cls-12" d="M1031,1868.66c2.08-.66,5,0.27,5.67,2.35h0c0.66,2.08-1.21,4.53-3.29,5.18" transform="translate(-890.72 -1713.59)"/><path class="cls-12" d="M1022.64,1888.89c2.18,0.08,4.63,1.93,4.56,4.11h0c-0.07,2.18-2.65,3.86-4.83,3.79" transform="translate(-890.72 -1713.59)"/><path class="cls-12" d="M984.62,1822.72c1.24-1.8,1.2-4.87-.6-6.11h0c-1.8-1.23-4.68-.16-5.92,1.64" transform="translate(-890.72 -1713.59)"/><path class="cls-12" d="M1014.74,1839.36c1.94-1,5-.57,6,1.37h0c1,1.94-.43,4.66-2.38,5.66" transform="translate(-890.72 -1713.59)"/><path class="cls-12" d="M997.65,1815.61c1.35-1.72,4.29-2.61,6-1.26h0c1.72,1.35,1.56,4.42.22,6.14" transform="translate(-890.72 -1713.59)"/><path class="cls-12" d="M1017.91,1822.19c1.59-1.5,4.63-1.93,6.13-.34h0c1.49,1.59.88,4.6-.71,6.09" transform="translate(-890.72 -1713.59)"/><path class="cls-12" d="M1036.61,1849.81c2-.91,5-0.34,5.92,1.65h0c0.9,2-.65,4.64-2.64,5.54" transform="translate(-890.72 -1713.59)"/><g class="cls-13"><circle class="cls-2" cx="1163.89" cy="1790.03" r="26.44" transform="translate(-1852.02 282.32) rotate(-62.5)"/><path class="cls-14" d="M1175,1774.95c0,4.39-4.91.13-11.36,0.08s-12.05,4.13-12-.26,5.3-6.9,11.75-6.85S1175,1770.56,1175,1774.95Z" transform="translate(-890.72 -1713.59)"/></g><g class="cls-13"><circle class="cls-2" cx="1054.89" cy="1749.03" r="35.44" transform="translate(-1741.68 -699.14) rotate(-37.83)"/><path class="cls-14" d="M1076.81,1736.85c-2.5,5.33-6-2.58-13.88-6.26s-17-1.72-14.49-7,10.31-5.44,18.15-1.77S1079.31,1731.53,1076.81,1736.85Z" transform="translate(-890.72 -1713.59)"/></g><g class="cls-13"><circle class="cls-2" cx="1106.39" cy="1854.53" r="15.94" transform="translate(-1265.29 -1430.72) rotate(-12.48)"/><path class="cls-14" d="M1117.65,1853.8c-2,1.68-2-2.21-4.44-5.22s-6.58-4-4.53-5.65,5.24-.23,7.72,2.78S1119.69,1852.11,1117.65,1853.8Z" transform="translate(-890.72 -1713.59)"/></g><g class="cls-13"><circle class="cls-2" cx="1076.89" cy="2010.03" r="26.44" transform="translate(-2094 323.57) rotate(-62.5)"/><path class="cls-14" d="M1088,1994.95c0,4.39-4.91.13-11.36,0.08s-12.05,4.13-12-.26,5.3-6.9,11.75-6.85S1088,1990.56,1088,1994.95Z" transform="translate(-890.72 -1713.59)"/></g></svg>