<svg id="Layer_1" data-name="Layer 1" xmlns="http://www.w3.org/2000/svg" viewBox="0 0 1018.2 978.58"><defs><style>.cls-1{opacity:0.3;}.cls-2{fill:#7ec2c3;}</style></defs><title>contact-bg</title><g class="cls-1"><path class="cls-2" d="M4086.8,3510.56c-91.62-212.71-338.32-310.85-551-219.22a418.75,418.75,0,0,0-118.9,77.16,171.47,171.47,0,0,0-134.63,301.8,417.85,417.85,0,0,0,34.27,172c91.66,212.78,338.33,310.93,551,219.3S4178.44,3723.35,4086.8,3510.56Z" transform="translate(-3102.92 -3224.74)"/><path class="cls-2" d="M3412.22,3230.2a48.24,48.24,0,1,0,20.51,65.06A48.22,48.22,0,0,0,3412.22,3230.2Z" transform="translate(-3102.92 -3224.74)"/><path class="cls-2" d="M3325.61,3959.45a129.22,129.22,0,1,0,55,174.3A129.18,129.18,0,0,0,3325.61,3959.45Z" transform="translate(-3102.92 -3224.74)"/><path class="cls-2" d="M3120.67,3578.54a33,33,0,1,0-14-44.45A33,33,0,0,0,3120.67,3578.54Z" transform="translate(-3102.92 -3224.74)"/></g></svg>