<svg xmlns="http://www.w3.org/2000/svg" viewBox="0 0 148.62 144.77"><defs><style>.cls-1{isolation:isolate;}.cls-2,.cls-5{fill:#283535;}.cls-2,.cls-3{stroke:#283535;}.cls-2{stroke-width:6.52px;}.cls-3{fill:#f9b233;stroke-width:3.26px;}.cls-4{fill:#fff;opacity:0.21;}.cls-5{mix-blend-mode:multiply;}</style></defs><title>coral-yellor</title><g class="cls-1"><g id="Layer_1" data-name="Layer 1"><path class="cls-2" d="M3943.61,3985.56s14.57-6.3,22.18-25.18,8.87-79.87,2.34-96.89-27.78-14.51-35.82-12.11-38.52,12.37-35.64,43.51,18.06,85.09,25.06,89.4S3934.85,3989.13,3943.61,3985.56Z" transform="translate(-3868.43 -3846.4)"/><path class="cls-2" d="M3910.92,3870.47c1.18,3,11.82,1.82,22.77-2.54s18-10.28,16.86-13.24-11.82-1.82-22.77,2.54S3909.74,3867.51,3910.92,3870.47Z" transform="translate(-3868.43 -3846.4)"/><path class="cls-2" d="M3975.29,3985.07s15.08-4.94,24.41-23,17.55-36.2,12.62-53.75-26.33-17-34.56-15.36-39.49,8.78-39.49,40,8.78,43.88,15.36,48.82S3966.24,3987.82,3975.29,3985.07Z" transform="translate(-3868.43 -3846.4)"/><path class="cls-2" d="M3955.52,3910c0.9,3.05,10.79,2.83,22.09-.51s18.91-8.5,18-11.55-10.79-2.83-22.08.51S3954.63,3906.92,3955.52,3910Z" transform="translate(-3868.43 -3846.4)"/><path class="cls-2" d="M3907.22,3984.92s-12-.42-21.32-13.12c-8.22-11.17-14.92-21.38-14.14-33.92,0.73-11.81,12.05-18.15,16.84-19.88,5-1.8,25.77-8.71,33.27,12.16,8.85,24.66,5.48,38.79,1.52,45.42S3914.9,3985,3907.22,3984.92Z" transform="translate(-3868.43 -3846.4)"/><path class="cls-3" d="M3943.61,3985.56s14.57-6.3,22.18-25.18,8.87-79.87,2.34-96.89-27.78-14.51-35.82-12.11-38.52,12.37-35.64,43.51,18.06,85.09,25.06,89.4S3934.85,3989.13,3943.61,3985.56Z" transform="translate(-3868.43 -3846.4)"/><path class="cls-4" d="M3919,3955a12.84,12.84,0,0,1,6.88-2,257.71,257.71,0,0,1-6.91-26.72c-5.59-26.64.19-47.53,5.7-60.13a8.19,8.19,0,0,1-5.27,2.4c-5.74,12.34-12.45,34-6.56,62C3914.86,3940.46,3916.93,3948.47,3919,3955Z" transform="translate(-3868.43 -3846.4)"/><path class="cls-5" d="M3910.92,3871.29c1.18,3,11.82,1.82,22.77-2.54s18-10.28,16.86-13.24-11.82-1.82-22.77,2.54S3909.74,3868.33,3910.92,3871.29Z" transform="translate(-3868.43 -3846.4)"/><path class="cls-3" d="M3975.29,3985.07s15.08-4.94,24.41-23,17.55-36.2,12.62-53.75-26.33-17-34.56-15.36-39.49,8.78-39.49,40,8.78,43.88,15.36,48.82S3966.24,3987.82,3975.29,3985.07Z" transform="translate(-3868.43 -3846.4)"/><path class="cls-4" d="M3953,3939.45c0-16.26,11-24.05,20-27.79a14.57,14.57,0,0,1-2-3c-9.25,2.56-26,9.72-26,29.84,0,24.12,6.77,33.85,11.85,37.65,3.93,2.95,7.61,4.11,12.31,3.51a20,20,0,0,1-4.38-2.56C3959.8,3973.29,3953,3963.56,3953,3939.45Z" transform="translate(-3868.43 -3846.4)"/><path class="cls-5" d="M3955.52,3912.44c0.9,3.05,10.79,2.83,22.09-.51s18.91-8.5,18-11.55-10.79-2.83-22.08.51S3954.63,3909.39,3955.52,3912.44Z" transform="translate(-3868.43 -3846.4)"/><path class="cls-3" d="M3907.22,3984.92s-12-.42-21.32-13.12c-8.22-11.17-14.92-21.38-14.14-33.92,0.73-11.81,12.05-18.15,16.84-19.88,5-1.8,25.77-8.71,33.27,12.16,8.85,24.66,5.48,38.79,1.52,45.42S3914.9,3985,3907.22,3984.92Z" transform="translate(-3868.43 -3846.4)"/><path class="cls-4" d="M3909.22,3975.5c-5-1.08-13.23-5.93-21.34-23.59-5.6-12.18.19-21.73,5.7-27.49a14.07,14.07,0,0,1-5.27,1.1c-5.74,5.64-12.45,15.55-6.56,28.37,8.11,17.66,16.34,22.51,21.34,23.59a12.7,12.7,0,0,0,10.2-1.57A16.24,16.24,0,0,1,3909.22,3975.5Z" transform="translate(-3868.43 -3846.4)"/><path class="cls-5" d="M3906.18,3923c0,2.28-7.11,5.55-14.53,7.19-7,1.56-10.69,1-10.58-1s4.7-5.89,11.58-7.63C3899.93,3919.65,3906.15,3920.71,3906.18,3923Z" transform="translate(-3868.43 -3846.4)"/></g></g></svg>