<svg xmlns="http://www.w3.org/2000/svg" viewBox="0 0 177.39 172.83"><defs><style>.cls-1{isolation:isolate;}.cls-2,.cls-5{fill:#283535;}.cls-2,.cls-3{stroke:#283535;}.cls-2{stroke-width:9.09px;}.cls-3{fill:#7ec2c3;stroke-width:4.54px;}.cls-4{fill:#beddde;}.cls-5{mix-blend-mode:multiply;}</style></defs><title>coral-blue</title><g class="cls-1"><g id="Layer_1" data-name="Layer 1"><path class="cls-2" d="M3877.91,3837.94s17.25-7.47,26.27-29.83,10.5-94.59,2.77-114.75-32.9-17.18-42.43-14.35-45.62,14.65-42.21,51.53,21.38,100.77,29.68,105.88S3867.54,3842.16,3877.91,3837.94Z" transform="translate(-3788.19 -3672.44)"/><path class="cls-2" d="M3839.19,3701.63c1.39,3.5,14,2.16,27-3s21.37-12.18,20-15.68-14-2.16-27,3S3837.8,3698.13,3839.19,3701.63Z" transform="translate(-3788.19 -3672.44)"/><path class="cls-2" d="M3915.44,3837.36s17.87-5.85,28.91-27.28,20.79-42.87,14.94-63.66-31.18-20.14-40.93-18.19-46.77,10.39-46.77,47.42,10.39,52,18.19,57.82S3904.72,3840.61,3915.44,3837.36Z" transform="translate(-3788.19 -3672.44)"/><path class="cls-2" d="M3892,3748.41c1.06,3.61,12.78,3.35,26.16-.6s22.39-10.07,21.33-13.68-12.78-3.35-26.16.6S3891,3744.8,3892,3748.41Z" transform="translate(-3788.19 -3672.44)"/><path class="cls-2" d="M3834.81,3837.18s-14.19-.5-25.25-15.54c-9.73-13.23-17.66-25.32-16.75-40.17,0.86-14,14.27-21.5,19.95-23.55,5.88-2.13,30.52-10.32,39.4,14.41,10.49,29.2,6.49,45.94,1.8,53.79S3843.9,3837.26,3834.81,3837.18Z" transform="translate(-3788.19 -3672.44)"/><path class="cls-3" d="M3877.91,3837.94s17.25-7.47,26.27-29.83,10.5-94.59,2.77-114.75-32.9-17.18-42.43-14.35-45.62,14.65-42.21,51.53,21.38,100.77,29.68,105.88S3867.54,3842.16,3877.91,3837.94Z" transform="translate(-3788.19 -3672.44)"/><path class="cls-4" d="M3848.72,3801.75a15.21,15.21,0,0,1,8.14-2.33,305,305,0,0,1-8.19-31.65c-6.63-31.56.22-56.29,6.75-71.22a9.7,9.7,0,0,1-6.24,2.85c-6.8,14.61-14.75,40.27-7.77,73.48C3843.86,3784.52,3846.32,3794,3848.72,3801.75Z" transform="translate(-3788.19 -3672.44)"/><path class="cls-5" d="M3839.19,3702.6c1.39,3.5,14,2.16,27-3s21.37-12.18,20-15.68-14-2.16-27,3S3837.8,3699.1,3839.19,3702.6Z" transform="translate(-3788.19 -3672.44)"/><path class="cls-3" d="M3915.44,3837.36s17.87-5.85,28.91-27.28,20.79-42.87,14.94-63.66-31.18-20.14-40.93-18.19-46.77,10.39-46.77,47.42,10.39,52,18.19,57.82S3904.72,3840.61,3915.44,3837.36Z" transform="translate(-3788.19 -3672.44)"/><path class="cls-4" d="M3889.06,3783.32c0-19.26,13-28.48,23.74-32.92a17.25,17.25,0,0,1-2.31-3.55c-11,3-30.83,11.51-30.83,35.34,0,28.56,8,40.09,14,44.6,4.65,3.49,9,4.87,14.58,4.16a23.73,23.73,0,0,1-5.19-3C3897.08,3823.41,3889.06,3811.89,3889.06,3783.32Z" transform="translate(-3788.19 -3672.44)"/><path class="cls-5" d="M3892,3751.34c1.06,3.61,12.78,3.35,26.16-.6s22.39-10.07,21.33-13.68-12.78-3.35-26.16.6S3891,3747.72,3892,3751.34Z" transform="translate(-3788.19 -3672.44)"/><path class="cls-3" d="M3834.81,3837.18s-14.19-.5-25.25-15.54c-9.73-13.23-17.66-25.32-16.75-40.17,0.86-14,14.27-21.5,19.95-23.55,5.88-2.13,30.52-10.32,39.4,14.41,10.49,29.2,6.49,45.94,1.8,53.79S3843.9,3837.26,3834.81,3837.18Z" transform="translate(-3788.19 -3672.44)"/><path class="cls-4" d="M3837.18,3826c-5.92-1.28-15.67-7-25.28-27.94-6.63-14.43.22-25.74,6.75-32.56a16.68,16.68,0,0,1-6.24,1.3c-6.79,6.68-14.75,18.41-7.77,33.59,9.61,20.92,19.36,26.66,25.28,27.94,4.58,1,8.24.53,12.08-1.86A19.22,19.22,0,0,1,3837.18,3826Z" transform="translate(-3788.19 -3672.44)"/><path class="cls-5" d="M3833.58,3763.8c0,2.69-8.42,6.57-17.2,8.52-8.31,1.84-12.66,1.24-12.53-1.23s5.56-7,13.72-9C3826.18,3759.87,3833.55,3761.13,3833.58,3763.8Z" transform="translate(-3788.19 -3672.44)"/></g></g></svg>