<svg id="Layer_1" data-name="Layer 1" xmlns="http://www.w3.org/2000/svg" xmlns:xlink="http://www.w3.org/1999/xlink" viewBox="0 0 547.9 327.55">
  <defs>
    <linearGradient id="Blowfish_Grad" data-name="Blowfish Grad" x1="194.83" y1="203.42" x2="281.42" y2="203.42" gradientUnits="userSpaceOnUse">
      <stop offset="0" stop-color="#181b22"/>
      <stop offset="1" stop-color="#293737"/>
    </linearGradient>
    <linearGradient id="Blowfish_Grad-2" x1="275.27" y1="2236.6" x2="277.06" y2="2236.6" xlink:href="#Blowfish_Grad"/>
    <linearGradient id="Blowfish_Grad-3" x1="269.81" y1="2240.23" x2="282.52" y2="2240.23" xlink:href="#Blowfish_Grad"/>
    <linearGradient id="Blowfish_Grad-4" x1="164.83" y1="215.92" x2="251.42" y2="215.92" xlink:href="#Blowfish_Grad"/>
    <linearGradient id="Blowfish_Grad-5" x1="245.27" y1="2249.1" x2="247.06" y2="2249.1" xlink:href="#Blowfish_Grad"/>
    <linearGradient id="Blowfish_Grad-6" x1="239.81" y1="2252.73" x2="252.52" y2="2252.73" xlink:href="#Blowfish_Grad"/>
  </defs>
  <title>diagram-2</title>
  <g>
    <path d="M504.15,2364.58H230c-90.62,0-164.37-73.47-164.37-163.76S139.41,2037.06,230,2037.06a164.85,164.85,0,0,1,116.7,48.45,83.82,83.82,0,0,1,8.9-15.15,82.67,82.67,0,0,1,66.16-33.3c45.31,0,82.19,36.74,82.19,81.88a81.11,81.11,0,0,1-4.88,27.76c1.67-.08,3.34-0.11,5-0.11,60.32,0,109.42,48.91,109.42,109s-49.09,109-109.42,109v0Z" transform="translate(-65.67 -2037.06)" style="fill: #7ec2c3;opacity: 0.12"/>
    <g style="opacity: 0.4">
      <rect x="344.33" y="128.03" width="84.59" height="29.77" rx="4.67" ry="4.67" style="fill: #fff;stroke: #beddde;stroke-miterlimit: 10;stroke-dasharray: 6,2"/>
      <g>
        <path d="M424.66,2180a0.39,0.39,0,0,1-.39-0.39v-7a0.39,0.39,0,0,1,.78,0v7A0.39,0.39,0,0,1,424.66,2180Z" transform="translate(-65.67 -2037.06)" style="fill: none;stroke: #beddde;stroke-miterlimit: 10;stroke-width: 0.25px"/>
        <path d="M424.66,2185.48a5.86,5.86,0,0,1-4.67-9.39,5.9,5.9,0,0,1,3-2.08,0.39,0.39,0,0,1,.22.75,5.08,5.08,0,1,0,2.9,0,0.39,0.39,0,1,1,.22-0.75,5.9,5.9,0,0,1,3,2.08,5.86,5.86,0,0,1-4.67,9.39h0Z" transform="translate(-65.67 -2037.06)" style="fill: none;stroke: #beddde;stroke-miterlimit: 10;stroke-width: 0.25px"/>
      </g>
    </g>
    <g style="opacity: 0.4">
      <rect x="308.33" y="140.03" width="84.59" height="29.77" rx="4.67" ry="4.67" style="fill: #fff;stroke: #beddde;stroke-miterlimit: 10;stroke-dasharray: 6,2"/>
      <g>
        <path d="M388.66,2192a0.39,0.39,0,0,1-.39-0.39v-7a0.39,0.39,0,0,1,.78,0v7A0.39,0.39,0,0,1,388.66,2192Z" transform="translate(-65.67 -2037.06)" style="fill: none;stroke: #beddde;stroke-miterlimit: 10;stroke-width: 0.25px"/>
        <path d="M388.66,2197.48a5.86,5.86,0,0,1-4.67-9.39,5.9,5.9,0,0,1,3-2.08,0.39,0.39,0,0,1,.22.75,5.08,5.08,0,1,0,2.9,0,0.39,0.39,0,1,1,.22-0.75,5.9,5.9,0,0,1,3,2.08,5.86,5.86,0,0,1-4.67,9.39h0Z" transform="translate(-65.67 -2037.06)" style="fill: none;stroke: #beddde;stroke-miterlimit: 10;stroke-width: 0.25px"/>
      </g>
    </g>
    <line x1="401.65" y1="163.53" x2="433.76" y2="169.07" style="fill: none;stroke: #beddde;stroke-miterlimit: 10;stroke-width: 0.75px;stroke-dasharray: 6,2"/>
    <g>
      <path d="M555.57,2203.56a26.36,26.36,0,0,0-5.69-1.63,113,113,0,0,0-35.76,0,26.27,26.27,0,0,0-5.69,1.63c-1.7.77-2.57,1.66-2.57,2.64V2229c0,1,.86,1.87,2.57,2.64a26.36,26.36,0,0,0,5.69,1.63,112.95,112.95,0,0,0,35.76,0,26.27,26.27,0,0,0,5.69-1.63c1.7-.77,2.57-1.66,2.57-2.64V2206.2c0-1-.86-1.87-2.57-2.64h0" transform="translate(-65.67 -2037.06)" style="fill: #fff;opacity: 0.4"/>
      <path d="M555.94,2203.36a26.75,26.75,0,0,0-5.78-1.65,114.68,114.68,0,0,0-36.28,0,26.65,26.65,0,0,0-5.78,1.65c-1.73.78-2.6,1.68-2.6,2.68v23.11c0,1,.88,1.9,2.6,2.68a26.75,26.75,0,0,0,5.78,1.65,114.6,114.6,0,0,0,36.28,0,26.65,26.65,0,0,0,5.78-1.65c1.73-.78,2.6-1.68,2.6-2.68V2206c0-1-.88-1.9-2.6-2.68h0Zm-41.31.2a110.72,110.72,0,0,1,34.79,0c5,1,6.34,2,6.34,2.48s-1.32,1.52-6.34,2.48a110.72,110.72,0,0,1-34.79,0c-5-1-6.34-2-6.34-2.48S509.61,2204.52,514.62,2203.56Zm34.79,28.06a110.72,110.72,0,0,1-34.79,0c-5-1-6.34-2-6.34-2.48v-4.94a27.64,27.64,0,0,0,5.59,1.57,114.6,114.6,0,0,0,36.28,0,27.59,27.59,0,0,0,5.59-1.57v4.94c0,0.44-1.32,1.52-6.34,2.48h0Zm0-7.7a110.72,110.72,0,0,1-34.79,0c-5-1-6.34-2-6.34-2.48v-4.94a27.64,27.64,0,0,0,5.59,1.57,114.68,114.68,0,0,0,36.28,0,27.59,27.59,0,0,0,5.59-1.57v4.94C555.75,2221.88,554.43,2223,549.41,2223.92Zm0-7.7a110.72,110.72,0,0,1-34.79,0c-5-1-6.34-2-6.34-2.48v-4.94a27.64,27.64,0,0,0,5.59,1.57,114.68,114.68,0,0,0,36.28,0,27.59,27.59,0,0,0,5.59-1.57v4.94C555.75,2214.18,554.43,2215.26,549.41,2216.22Z" transform="translate(-65.67 -2037.06)" style="fill: none;stroke: #beddde;stroke-miterlimit: 10;stroke-width: 0.75px;stroke-dasharray: 6,2"/>
    </g>
    <path d="M165.07,2182.51a4.68,4.68,0,0,1-.83-0.07L123.57,2175c-1.09-.2-1.6-0.74-1.14-1.22a3.59,3.59,0,0,1,2.8-.5l39.84,7.27,39.84-7.27a3.59,3.59,0,0,1,2.8.5c0.46,0.47-.05,1-1.14,1.22l-40.67,7.42A4.68,4.68,0,0,1,165.07,2182.51Z" transform="translate(-65.67 -2037.06)"/>
    <path d="M165.07,2188.07a4.68,4.68,0,0,1-.83-0.07l-40.67-7.42c-1.09-.2-1.6-0.74-1.14-1.22a3.59,3.59,0,0,1,2.8-.5l39.84,7.27,39.84-7.27a3.59,3.59,0,0,1,2.8.5c0.46,0.47-.05,1-1.14,1.22L165.9,2188A4.68,4.68,0,0,1,165.07,2188.07Z" transform="translate(-65.67 -2037.06)"/>
    <g style="opacity: 0.8">
      <rect x="271.33" y="158.03" width="84.59" height="29.77" rx="4.67" ry="4.67" style="fill: #fff;stroke: #7ec2c3;stroke-miterlimit: 10;stroke-dasharray: 6,2"/>
      <g>
        <path d="M351.66,2210a0.39,0.39,0,0,1-.39-0.39v-7a0.39,0.39,0,0,1,.78,0v7A0.39,0.39,0,0,1,351.66,2210Z" transform="translate(-65.67 -2037.06)" style="fill: none;stroke: #7ec2c3;stroke-miterlimit: 10;stroke-width: 0.25px"/>
        <path d="M351.66,2215.48a5.86,5.86,0,0,1-4.67-9.39,5.9,5.9,0,0,1,3-2.08,0.39,0.39,0,0,1,.22.75,5.08,5.08,0,1,0,2.9,0,0.39,0.39,0,1,1,.22-0.75,5.9,5.9,0,0,1,3,2.08,5.86,5.86,0,0,1-4.67,9.39h0Z" transform="translate(-65.67 -2037.06)" style="fill: none;stroke: #7ec2c3;stroke-miterlimit: 10;stroke-width: 0.25px"/>
      </g>
    </g>
    <g style="opacity: 0.8">
      <rect x="235.33" y="170.03" width="84.59" height="29.77" rx="4.67" ry="4.67" style="fill: #fff;stroke: #7ec2c3;stroke-miterlimit: 10;stroke-dasharray: 6,2"/>
      <g>
        <path d="M315.66,2222a0.39,0.39,0,0,1-.39-0.39v-7a0.39,0.39,0,0,1,.78,0v7A0.39,0.39,0,0,1,315.66,2222Z" transform="translate(-65.67 -2037.06)" style="fill: none;stroke: #7ec2c3;stroke-miterlimit: 10;stroke-width: 0.25px"/>
        <path d="M315.66,2227.48a5.86,5.86,0,0,1-4.67-9.39,5.9,5.9,0,0,1,3-2.08,0.39,0.39,0,0,1,.22.75,5.08,5.08,0,1,0,2.9,0,0.39,0.39,0,1,1,.22-0.75,5.9,5.9,0,0,1,3,2.08,5.86,5.86,0,0,1-4.67,9.39h0Z" transform="translate(-65.67 -2037.06)" style="fill: none;stroke: #7ec2c3;stroke-miterlimit: 10;stroke-width: 0.25px"/>
      </g>
    </g>
    <g>
      <rect x="195.83" y="188.53" width="84.59" height="29.77" rx="4.67" ry="4.67" style="fill: #fff;stroke-miterlimit: 10;stroke-width: 2px;stroke: url(#Blowfish_Grad)"/>
      <g>
        <path d="M276.16,2240.51a0.39,0.39,0,0,1-.39-0.39v-7a0.39,0.39,0,0,1,.78,0v7A0.39,0.39,0,0,1,276.16,2240.51Z" transform="translate(-65.67 -2037.06)" style="stroke-miterlimit: 10;stroke: url(#Blowfish_Grad-2)"/>
        <path d="M276.16,2246a5.86,5.86,0,0,1-4.67-9.39,5.9,5.9,0,0,1,3-2.08,0.39,0.39,0,0,1,.22.75,5.08,5.08,0,1,0,2.9,0,0.39,0.39,0,1,1,.22-0.75,5.9,5.9,0,0,1,3,2.08,5.86,5.86,0,0,1-4.67,9.39h0Z" transform="translate(-65.67 -2037.06)" style="stroke-miterlimit: 10;stroke: url(#Blowfish_Grad-3)"/>
      </g>
    </g>
    <g>
      <rect x="165.83" y="201.03" width="84.59" height="29.77" rx="4.67" ry="4.67" style="fill: #fff;stroke-miterlimit: 10;stroke-width: 2px;stroke: url(#Blowfish_Grad-4)"/>
      <g>
        <path d="M246.16,2253a0.39,0.39,0,0,1-.39-0.39v-7a0.39,0.39,0,0,1,.78,0v7A0.39,0.39,0,0,1,246.16,2253Z" transform="translate(-65.67 -2037.06)" style="stroke-miterlimit: 10;stroke: url(#Blowfish_Grad-5)"/>
        <path d="M246.16,2258.48a5.86,5.86,0,0,1-4.67-9.39,5.9,5.9,0,0,1,3-2.08,0.39,0.39,0,0,1,.22.75,5.08,5.08,0,1,0,2.9,0,0.39,0.39,0,1,1,.22-0.75,5.9,5.9,0,0,1,3,2.08,5.86,5.86,0,0,1-4.67,9.39h0Z" transform="translate(-65.67 -2037.06)" style="stroke-miterlimit: 10;stroke: url(#Blowfish_Grad-6)"/>
      </g>
    </g>
    <g>
      <line x1="314.86" y1="313.93" x2="509.87" y2="211.91" style="fill: none;stroke: #666;stroke-miterlimit: 10;stroke-width: 0.5px"/>
      <polygon points="509.49 214.2 509.33 212.19 507.77 210.92 512.52 210.52 509.49 214.2" style="fill: #666"/>
    </g>
    <g>
      <path d="M428.6,2321l-0.42-.61,0,0A2.16,2.16,0,0,1,427,2322a1.65,1.65,0,0,1-2.35-.65c-0.65-1.24.1-2.5,2.09-3.53l-0.05-.11a1.2,1.2,0,0,0-1.79-.58,2.9,2.9,0,0,0-1.14,1.08l-0.54-.5a3.61,3.61,0,0,1,1.45-1.34,2.06,2.06,0,0,1,3.06,1.08l1,1.92a8.35,8.35,0,0,0,.73,1.19Zm-1.52-2.55c-1,.51-2.09,1.3-1.57,2.3a0.93,0.93,0,0,0,1.35.43,1.44,1.44,0,0,0,.79-1.51,1.1,1.1,0,0,0-.1-0.33Z" transform="translate(-65.67 -2037.06)"/>
      <path d="M434.44,2316.14c0.28,0.53.53,1,.78,1.38l-0.83.43-0.49-.81h0a2.19,2.19,0,0,1-1.2,1.85c-0.81.42-2,.48-3-1.32l-1.58-3,0.93-.49,1.49,2.85c0.51,1,1.16,1.48,2,1a1.52,1.52,0,0,0,.79-1.5,1.5,1.5,0,0,0-.17-0.52l-1.65-3.15,0.93-.49Z" transform="translate(-65.67 -2037.06)"/>
      <path d="M434.38,2309.52l0.77,1.48,1.34-.7,0.37,0.71-1.34.7,1.46,2.77c0.33,0.64.7,0.9,1.23,0.63a2.44,2.44,0,0,0,.51-0.35l0.41,0.68a2.57,2.57,0,0,1-.76.56,1.46,1.46,0,0,1-1.21.14,2.14,2.14,0,0,1-1.06-1.15l-1.47-2.8-0.8.42-0.37-.71,0.8-.42-0.65-1.23Z" transform="translate(-65.67 -2037.06)"/>
      <path d="M443.46,2309.86a2.84,2.84,0,0,1-1.13,4.07,2.76,2.76,0,0,1-3.85-1.35,2.83,2.83,0,0,1,1.12-4.07A2.75,2.75,0,0,1,443.46,2309.86Zm-4,2.19a1.81,1.81,0,1,0,3.11-1.66c-0.46-.87-1.47-1.75-2.58-1.17S438.9,2311.08,439.41,2312.05Z" transform="translate(-65.67 -2037.06)"/>
      <path d="M445.38,2311a2.78,2.78,0,0,0,1.43-.28,0.94,0.94,0,0,0,.6-1.29c-0.23-.45-0.63-0.55-1.45-0.44a1.87,1.87,0,0,1-2.12-.74,1.79,1.79,0,0,1,1-2.44,2.91,2.91,0,0,1,1.43-.35l0.12,0.8a2.27,2.27,0,0,0-1.21.26,0.85,0.85,0,0,0-.49,1.15c0.22,0.42.63,0.45,1.43,0.36a1.86,1.86,0,0,1,2.16.84c0.47,0.9.11,1.91-1.11,2.55a3.33,3.33,0,0,1-1.63.41Z" transform="translate(-65.67 -2037.06)"/>
      <path d="M453.79,2307.53a3.87,3.87,0,0,1-1.32,1.07,2.76,2.76,0,0,1-3.94-1.28,3,3,0,0,1,1.33-4.18,3.55,3.55,0,0,1,1.44-.41l0.17,0.83a2.45,2.45,0,0,0-1.21.33,2.19,2.19,0,0,0,2,3.88,3,3,0,0,0,1-.86Z" transform="translate(-65.67 -2037.06)"/>
      <path d="M457.83,2305.65l-0.41-.61,0,0a2.16,2.16,0,0,1-1.17,1.59,1.65,1.65,0,0,1-2.35-.65c-0.65-1.24.1-2.5,2.09-3.53l-0.06-.11a1.2,1.2,0,0,0-1.79-.58,2.89,2.89,0,0,0-1.14,1.08l-0.54-.5a3.6,3.6,0,0,1,1.45-1.34,2.06,2.06,0,0,1,3.06,1.08l1,1.92a8.27,8.27,0,0,0,.73,1.19Zm-1.52-2.55c-1,.51-2.09,1.3-1.57,2.3a0.93,0.93,0,0,0,1.35.43,1.44,1.44,0,0,0,.79-1.51,1.1,1.1,0,0,0-.1-0.33Z" transform="translate(-65.67 -2037.06)"/>
      <path d="M456.15,2296.92l0.93-.49,4,7.54-0.94.49Z" transform="translate(-65.67 -2037.06)"/>
      <path d="M460.2,2296a0.65,0.65,0,0,1-1.16.61,0.64,0.64,0,0,1,.28-0.89A0.63,0.63,0,0,1,460.2,2296Zm2.42,7.13-2.7-5.14,0.93-.49,2.7,5.14Z" transform="translate(-65.67 -2037.06)"/>
      <path d="M463.13,2298.09c-0.28-.53-0.52-1-0.77-1.37l0.83-.44,0.5,0.82h0a2.13,2.13,0,0,1,1.19-1.86c0.71-.37,2-0.53,3,1.24l1.61,3.07-0.93.49-1.56-3c-0.43-.83-1.11-1.36-2-0.9a1.5,1.5,0,0,0-.75,1.61,1.48,1.48,0,0,0,.16.47l1.62,3.09-0.93.49Z" transform="translate(-65.67 -2037.06)"/>
      <path d="M472.72,2291.28c0.17,0.38.37,0.81,0.7,1.43l1.57,3a3.33,3.33,0,0,1,.5,2.73,3.06,3.06,0,0,1-1.54,1.6,3.73,3.73,0,0,1-1.93.47l-0.14-.83a3.28,3.28,0,0,0,1.72-.39,1.75,1.75,0,0,0,.71-2.66L474,2296h0a2.07,2.07,0,0,1-1.18,1.72,2.59,2.59,0,0,1-3.5-1.36,2.79,2.79,0,0,1,.88-3.94,1.93,1.93,0,0,1,2.07.05h0l-0.37-.8Zm0.1,2.54a1.5,1.5,0,0,0-.28-0.4,1.52,1.52,0,0,0-1.82-.3c-0.89.47-1.13,1.56-.51,2.75a1.82,1.82,0,0,0,2.49,1.05,1.54,1.54,0,0,0,.79-1.64,1.84,1.84,0,0,0-.19-0.54Z" transform="translate(-65.67 -2037.06)"/>
      <path d="M475.23,2286.9l0.93-.49,1.68,3.21h0a2,2,0,0,1,.32-1,2.17,2.17,0,0,1,.82-0.77c0.69-.36,2-0.52,2.95,1.26l1.61,3.06-0.93.49-1.55-3c-0.44-.83-1.11-1.37-2-0.9a1.52,1.52,0,0,0-.76,1.59,1.3,1.3,0,0,0,.17.48l1.63,3.1-0.93.49Z" transform="translate(-65.67 -2037.06)"/>
      <path d="M488.36,2286.29a2.84,2.84,0,0,1-1.13,4.07,2.76,2.76,0,0,1-3.85-1.35,2.84,2.84,0,0,1,1.12-4.07A2.75,2.75,0,0,1,488.36,2286.29Zm-4,2.19a1.81,1.81,0,1,0,3.11-1.66c-0.46-.87-1.47-1.75-2.58-1.17S483.8,2287.51,484.31,2288.48Z" transform="translate(-65.67 -2037.06)"/>
      <path d="M489.06,2284.75c-0.32-.61-0.6-1.12-0.88-1.58l0.82-.43,0.56,1,0,0a1.74,1.74,0,0,1,.83-1.87,1.13,1.13,0,0,1,.28-0.11l0.46,0.88a1.56,1.56,0,0,0-.33.14,1.48,1.48,0,0,0-.62,1.86,3,3,0,0,0,.19.46l1.44,2.74-0.92.48Z" transform="translate(-65.67 -2037.06)"/>
      <path d="M492,2279.31a0.65,0.65,0,0,1-1.16.61,0.64,0.64,0,0,1,.28-0.89A0.63,0.63,0,0,1,492,2279.31Zm2.42,7.13-2.7-5.14,0.93-.49,2.7,5.14Z" transform="translate(-65.67 -2037.06)"/>
      <path d="M496.05,2284.9l0.74-4.25c0.08-.39.16-0.75,0.25-1.15v0l-2.78,1.46-0.4-.75,3.92-2.06,0.3,0.59-0.73,4.19c-0.06.4-.14,0.76-0.23,1.15v0l3-1.58,0.39,0.74-4.17,2.19Z" transform="translate(-65.67 -2037.06)"/>
      <path d="M504.67,2277.73a2.84,2.84,0,0,1-1.13,4.07,2.76,2.76,0,0,1-3.85-1.35,2.84,2.84,0,0,1,1.12-4.07A2.75,2.75,0,0,1,504.67,2277.73Zm-4,2.19a1.81,1.81,0,1,0,3.11-1.66c-0.46-.87-1.47-1.75-2.58-1.17S500.11,2278.95,500.62,2279.92Z" transform="translate(-65.67 -2037.06)"/>
      <path d="M505.26,2276c-0.28-.53-0.52-1-0.78-1.37l0.83-.44,0.5,0.82h0a2.13,2.13,0,0,1,1.19-1.86c0.71-.37,2-0.53,3,1.24l1.61,3.07-0.93.49-1.56-3c-0.43-.83-1.11-1.36-2-0.9a1.5,1.5,0,0,0-.75,1.61,1.54,1.54,0,0,0,.17.47l1.62,3.09-0.93.49Z" transform="translate(-65.67 -2037.06)"/>
      <path d="M510.73,2269.44l0.78,1.48,1.34-.7,0.37,0.71-1.34.7,1.46,2.77c0.33,0.64.71,0.9,1.22,0.63a2.34,2.34,0,0,0,.51-0.35l0.41,0.68a2.57,2.57,0,0,1-.76.56,1.46,1.46,0,0,1-1.22.14,2.15,2.15,0,0,1-1.06-1.15l-1.47-2.8-0.8.42-0.37-.71,0.79-.42-0.65-1.23Z" transform="translate(-65.67 -2037.06)"/>
      <path d="M519.44,2273.31l-0.42-.61,0,0a2.16,2.16,0,0,1-1.17,1.59,1.65,1.65,0,0,1-2.34-.65c-0.65-1.24.09-2.5,2.09-3.53l-0.05-.11a1.2,1.2,0,0,0-1.79-.58,2.9,2.9,0,0,0-1.14,1.08L514,2270a3.61,3.61,0,0,1,1.45-1.34,2.06,2.06,0,0,1,3.06,1.08l1,1.92a8.18,8.18,0,0,0,.73,1.19Zm-1.52-2.55c-1,.51-2.09,1.3-1.57,2.3a0.93,0.93,0,0,0,1.35.43,1.44,1.44,0,0,0,.79-1.51,1.1,1.1,0,0,0-.1-0.33Z" transform="translate(-65.67 -2037.06)"/>
      <path d="M517.76,2264.57l0.93-.49,4,7.54-0.93.49Z" transform="translate(-65.67 -2037.06)"/>
    </g>
    <g>
      <line x1="29.96" y1="123.72" x2="239.04" y2="47.62" style="fill: none;stroke: #666;stroke-miterlimit: 10;stroke-width: 0.5px"/>
      <polygon points="239.21 50.21 242.41 46.39 237.5 45.52 239.21 50.21" style="fill: #666"/>
    </g>
    <g>
      <path d="M163.17,2122.64l1,2.65,2.54-.93,0.25,0.68-2.54.93,1,2.67-0.72.26-1-2.67-2.54.93-0.25-.68,2.54-.93-1-2.65Z" transform="translate(-65.67 -2037.06)"/>
      <path d="M170.24,2122.68c-0.26-.7-0.49-1.25-0.7-1.76l0.89-.33,0.39,0.92h0a2.28,2.28,0,0,1,1.55-1.77c1.32-.48,2.72.27,3.32,1.92,0.72,2-.12,3.36-1.4,3.84a2,2,0,0,1-2-.24h0l1.09,3-1,.36Zm1.51,1.1a2.33,2.33,0,0,0,.19.39,1.63,1.63,0,0,0,1.91.61c1-.38,1.34-1.46.88-2.71a1.89,1.89,0,0,0-2.37-1.43,1.69,1.69,0,0,0-1,1.78,1.79,1.79,0,0,0,.08.43Z" transform="translate(-65.67 -2037.06)"/>
      <path d="M181,2122.9l-0.33-.66h0a2.16,2.16,0,0,1-1.37,1.42,1.65,1.65,0,0,1-2.24-1c-0.48-1.32.42-2.47,2.53-3.23l0-.11a1.2,1.2,0,0,0-1.7-.81,2.89,2.89,0,0,0-1.27.93l-0.46-.57a3.6,3.6,0,0,1,1.61-1.14,2.06,2.06,0,0,1,2.89,1.47l0.75,2a8.24,8.24,0,0,0,.57,1.27Zm-1.17-2.73c-1.09.37-2.25,1-1.86,2.07a0.93,0.93,0,0,0,1.28.6,1.45,1.45,0,0,0,1-1.4,1.12,1.12,0,0,0-.06-0.34Z" transform="translate(-65.67 -2037.06)"/>
      <path d="M186.12,2114.84c0.12,0.4.26,0.85,0.5,1.51l1.16,3.16a3.33,3.33,0,0,1,.14,2.77,3.08,3.08,0,0,1-1.74,1.38,3.75,3.75,0,0,1-2,.21l0-.85a3.28,3.28,0,0,0,1.75-.16,1.75,1.75,0,0,0,1.06-2.55l-0.22-.61h0a2.07,2.07,0,0,1-1.4,1.55,2.59,2.59,0,0,1-3.29-1.81,2.79,2.79,0,0,1,1.39-3.79,1.93,1.93,0,0,1,2,.32h0l-0.26-.84Zm-0.24,2.53a1.54,1.54,0,0,0-2-1c-0.95.35-1.33,1.39-.87,2.66a1.81,1.81,0,0,0,2.33,1.37,1.54,1.54,0,0,0,1-1.52,1.85,1.85,0,0,0-.12-0.56Z" transform="translate(-65.67 -2037.06)"/>
      <path d="M189.34,2117a1.86,1.86,0,0,0,2.56,1.21,3.82,3.82,0,0,0,1.41-.83l0.43,0.65a4.72,4.72,0,0,1-1.69,1,2.7,2.7,0,0,1-3.69-1.77c-0.6-1.64-.11-3.29,1.48-3.88a2.46,2.46,0,0,1,3.19,1.74,3.94,3.94,0,0,1,.13.47Zm2.65-1.77a1.5,1.5,0,0,0-2-1.11,1.75,1.75,0,0,0-.93,2.17Z" transform="translate(-65.67 -2037.06)"/>
      <path d="M193.75,2112l2.19,2.67a15,15,0,0,1,1,1.24h0c0-.5,0-1-0.05-1.57l-0.06-3.45,1-.38-0.14,6.24-0.95.35-4.07-4.69Z" transform="translate(-65.67 -2037.06)"/>
      <path d="M199.33,2108.26a0.65,0.65,0,0,1-1.23.45,0.64,0.64,0,0,1,.39-0.85A0.63,0.63,0,0,1,199.33,2108.26Zm1.46,7.39-2-5.45,1-.36,2,5.45Z" transform="translate(-65.67 -2037.06)"/>
      <path d="M203,2111.93a1.86,1.86,0,0,0,2.56,1.21,3.82,3.82,0,0,0,1.41-.83l0.43,0.65a4.72,4.72,0,0,1-1.69,1,2.7,2.7,0,0,1-3.69-1.77c-0.6-1.64-.11-3.29,1.48-3.88a2.46,2.46,0,0,1,3.19,1.74,4.19,4.19,0,0,1,.14.47Zm2.64-1.77a1.5,1.5,0,0,0-2-1.11,1.75,1.75,0,0,0-.93,2.17Z" transform="translate(-65.67 -2037.06)"/>
      <path d="M207.46,2107l1.74,2.51c0.38,0.55.73,1.06,1,1.58h0c-0.08-.6-0.11-1.25-0.15-1.9l-0.13-3.11,0.83-.31,1.84,2.41c0.44,0.58.81,1.1,1.14,1.6h0a17.31,17.31,0,0,1-.23-1.92l-0.23-3,1-.36,0.24,6.09-0.9.33-1.79-2.3a19.52,19.52,0,0,1-1.14-1.61h0a17.19,17.19,0,0,1,.17,2l0.07,2.91-0.9.33-3.64-4.85Z" transform="translate(-65.67 -2037.06)"/>
      <path d="M216.78,2108.62a2.77,2.77,0,0,0,1.45-.08,0.94,0.94,0,0,0,.76-1.2c-0.17-.47-0.55-0.63-1.38-0.63a1.86,1.86,0,0,1-2-1,1.79,1.79,0,0,1,1.29-2.29,2.9,2.9,0,0,1,1.46-.15l0,0.81a2.26,2.26,0,0,0-1.23.09,0.85,0.85,0,0,0-.64,1.08c0.17,0.45.57,0.53,1.37,0.54a1.86,1.86,0,0,1,2,1.12c0.35,1-.14,1.91-1.44,2.38a3.31,3.31,0,0,1-1.67.19Z" transform="translate(-65.67 -2037.06)"/>
    </g>
    <line x1="124.21" y1="172.65" x2="164.56" y2="193.21" style="fill: none;stroke: #000;stroke-miterlimit: 10"/>
    <line x1="138.89" y1="164.63" x2="185.2" y2="181.56" style="fill: none;stroke: #000;stroke-miterlimit: 10"/>
    <line x1="254.96" y1="230.32" x2="279.63" y2="242.26" style="fill: none;stroke: #000;stroke-miterlimit: 10"/>
    <line x1="329.42" y1="196.4" x2="357.42" y2="203.81" style="fill: none;stroke: #7ec2c3;stroke-miterlimit: 10;stroke-width: 0.75px;stroke-dasharray: 6,2"/>
    <line x1="157.51" y1="155.24" x2="204.92" y2="168.19" style="fill: none;stroke: #7ec2c3;stroke-miterlimit: 10;stroke-dasharray: 6,2"/>
    <line x1="174.59" y1="146.18" x2="226.35" y2="155.2" style="fill: none;stroke: #7ec2c3;stroke-miterlimit: 10;stroke-dasharray: 6,2"/>
    <g>
      <path d="M165.07,2176.94a4.68,4.68,0,0,1-.83-0.07l-40.67-7.42c-0.79-.14-1.31-0.48-1.31-0.86s0.52-.71,1.31-0.86l40.67-7.42a4.8,4.8,0,0,1,1.66,0l40.67,7.42c0.79,0.14,1.31.48,1.31,0.86s-0.52.71-1.31,0.86l-40.67,7.42A4.68,4.68,0,0,1,165.07,2176.94Zm-35.15-8.35,35.15,6.41,35.15-6.41-35.15-6.41Z" transform="translate(-65.67 -2037.06)"/>
      <polygon points="64.18 131.53 99.33 137.94 134.49 131.53 99.33 125.11 64.18 131.53" style="fill: #fff"/>
    </g>
    <path d="M401.35,2284.84a26.36,26.36,0,0,0-5.69-1.63,113,113,0,0,0-35.76,0,26.27,26.27,0,0,0-5.69,1.63c-1.7.77-2.57,1.66-2.57,2.64v22.77c0,1,.86,1.87,2.57,2.64a26.36,26.36,0,0,0,5.69,1.63,112.95,112.95,0,0,0,35.76,0,26.27,26.27,0,0,0,5.69-1.63c1.7-.77,2.57-1.66,2.57-2.64v-22.77c0-1-.86-1.87-2.57-2.64h0" transform="translate(-65.67 -2037.06)" style="fill: #fff"/>
    <path d="M402.08,2284.38a26.75,26.75,0,0,0-5.78-1.65,114.68,114.68,0,0,0-36.28,0,26.65,26.65,0,0,0-5.78,1.65c-1.73.78-2.6,1.68-2.6,2.68v23.11c0,1,.88,1.9,2.6,2.68a26.75,26.75,0,0,0,5.78,1.65,114.6,114.6,0,0,0,36.28,0,26.65,26.65,0,0,0,5.78-1.65c1.73-.78,2.6-1.68,2.6-2.68v-23.11c0-1-.88-1.9-2.6-2.68h0Zm-41.31.2a110.72,110.72,0,0,1,34.79,0c5,1,6.34,2,6.34,2.48s-1.32,1.52-6.34,2.48a110.72,110.72,0,0,1-34.79,0c-5-1-6.34-2-6.34-2.48S355.75,2285.54,360.76,2284.58Zm34.79,28.06a110.72,110.72,0,0,1-34.79,0c-5-1-6.34-2-6.34-2.48v-4.94a27.64,27.64,0,0,0,5.59,1.57,114.6,114.6,0,0,0,36.28,0,27.59,27.59,0,0,0,5.59-1.57v4.94c0,0.44-1.32,1.52-6.34,2.48h0Zm0-7.7a110.72,110.72,0,0,1-34.79,0c-5-1-6.34-2-6.34-2.48v-4.94a27.64,27.64,0,0,0,5.59,1.57,114.68,114.68,0,0,0,36.28,0,27.59,27.59,0,0,0,5.59-1.57v4.94C401.89,2302.9,400.57,2304,395.55,2304.94Zm0-7.7a110.72,110.72,0,0,1-34.79,0c-5-1-6.34-2-6.34-2.48v-4.94a27.64,27.64,0,0,0,5.59,1.57,114.68,114.68,0,0,0,36.28,0,27.59,27.59,0,0,0,5.59-1.57v4.94C401.89,2295.2,400.57,2296.28,395.55,2297.24Z" transform="translate(-65.67 -2037.06)"/>
    <g>
      <path d="M478.27,2240.75a26.36,26.36,0,0,0-5.69-1.63,113,113,0,0,0-35.76,0,26.27,26.27,0,0,0-5.69,1.63c-1.7.77-2.57,1.66-2.57,2.64v22.77c0,1,.86,1.87,2.57,2.64a26.36,26.36,0,0,0,5.69,1.63,112.95,112.95,0,0,0,35.76,0,26.27,26.27,0,0,0,5.69-1.63c1.7-.77,2.57-1.66,2.57-2.64v-22.77c0-1-.86-1.87-2.57-2.64h0" transform="translate(-65.67 -2037.06)" style="fill: #fff"/>
      <path d="M478.63,2240.55a26.75,26.75,0,0,0-5.78-1.65,114.68,114.68,0,0,0-36.28,0,26.65,26.65,0,0,0-5.78,1.65c-1.73.78-2.6,1.68-2.6,2.68v23.11c0,1,.88,1.9,2.6,2.68a26.75,26.75,0,0,0,5.78,1.65,114.6,114.6,0,0,0,36.28,0,26.65,26.65,0,0,0,5.78-1.65c1.73-.78,2.6-1.68,2.6-2.68v-23.11c0-1-.88-1.9-2.6-2.68h0Zm-41.31.2a110.72,110.72,0,0,1,34.79,0c5,1,6.34,2,6.34,2.48s-1.32,1.52-6.34,2.48a110.72,110.72,0,0,1-34.79,0c-5-1-6.34-2-6.34-2.48S432.31,2241.72,437.32,2240.76Zm34.79,28.06a110.72,110.72,0,0,1-34.79,0c-5-1-6.34-2-6.34-2.48v-4.94a27.64,27.64,0,0,0,5.59,1.57,114.6,114.6,0,0,0,36.28,0,27.59,27.59,0,0,0,5.59-1.57v4.94c0,0.44-1.32,1.52-6.34,2.48h0Zm0-7.7a110.72,110.72,0,0,1-34.79,0c-5-1-6.34-2-6.34-2.48v-4.94a27.64,27.64,0,0,0,5.59,1.57,114.68,114.68,0,0,0,36.28,0,27.59,27.59,0,0,0,5.59-1.57v4.94C478.45,2259.07,477.12,2260.15,472.11,2261.11Zm0-7.7a110.72,110.72,0,0,1-34.79,0c-5-1-6.34-2-6.34-2.48V2246a27.64,27.64,0,0,0,5.59,1.57,114.68,114.68,0,0,0,36.28,0,27.59,27.59,0,0,0,5.59-1.57v4.94C478.45,2251.37,477.12,2252.45,472.11,2253.41Z" transform="translate(-65.67 -2037.06)" style="fill: none;stroke: #7ec2c3;stroke-miterlimit: 10;stroke-width: 0.75px;stroke-dasharray: 6,2"/>
    </g>
    <line x1="193.3" y1="137.16" x2="247.23" y2="143.99" style="fill: none;stroke: #beddde;stroke-miterlimit: 10;stroke-width: 0.75px;stroke-dasharray: 6,2"/>
    <line x1="212.53" y1="126.85" x2="266.75" y2="130.18" style="fill: none;stroke: #beddde;stroke-miterlimit: 10;stroke-width: 0.75px;stroke-dasharray: 6,2"/>
  </g>
</svg>
