<svg id="Layer_1" data-name="Layer 1" xmlns="http://www.w3.org/2000/svg" xmlns:xlink="http://www.w3.org/1999/xlink" viewBox="0 0 547.9 327.55">
  <defs>
    <linearGradient id="Blowfish_Grad" data-name="Blowfish Grad" x1="194.83" y1="203.42" x2="281.42" y2="203.42" gradientUnits="userSpaceOnUse">
      <stop offset="0" stop-color="#181b22"/>
      <stop offset="1" stop-color="#293737"/>
    </linearGradient>
    <linearGradient id="Blowfish_Grad-2" x1="478.81" y1="2315.66" x2="480.59" y2="2315.66" xlink:href="#Blowfish_Grad"/>
    <linearGradient id="Blowfish_Grad-3" x1="473.34" y1="2319.29" x2="486.06" y2="2319.29" xlink:href="#Blowfish_Grad"/>
    <linearGradient id="Blowfish_Grad-4" x1="164.83" y1="215.92" x2="251.42" y2="215.92" xlink:href="#Blowfish_Grad"/>
    <linearGradient id="Blowfish_Grad-5" x1="448.81" y1="2328.16" x2="450.59" y2="2328.16" xlink:href="#Blowfish_Grad"/>
    <linearGradient id="Blowfish_Grad-6" x1="443.34" y1="2331.79" x2="456.06" y2="2331.79" xlink:href="#Blowfish_Grad"/>
  </defs>
  <title>diagram-2-en</title>
  <g>
    <path d="M707.69,2443.63H433.57c-90.62,0-164.37-73.47-164.37-163.76S343,2116.12,433.57,2116.12a164.85,164.85,0,0,1,116.7,48.45,83.82,83.82,0,0,1,8.9-15.15,82.67,82.67,0,0,1,66.16-33.3c45.31,0,82.19,36.74,82.19,81.88a81.11,81.11,0,0,1-4.88,27.76c1.67-.08,3.34-0.11,5-0.11,60.32,0,109.42,48.91,109.42,109s-49.09,109-109.42,109v0Z" transform="translate(-269.2 -2116.12)" style="fill: #7ec2c3;opacity: 0.12"/>
    <g style="opacity: 0.4">
      <rect x="344.33" y="128.03" width="84.59" height="29.77" rx="4.67" ry="4.67" style="fill: #fff;stroke: #beddde;stroke-miterlimit: 10;stroke-dasharray: 6,2"/>
      <g>
        <path d="M628.2,2259.07a0.39,0.39,0,0,1-.39-0.39v-7a0.39,0.39,0,0,1,.78,0v7A0.39,0.39,0,0,1,628.2,2259.07Z" transform="translate(-269.2 -2116.12)" style="fill: none;stroke: #beddde;stroke-miterlimit: 10;stroke-width: 0.25px"/>
        <path d="M628.2,2264.53a5.86,5.86,0,0,1-4.67-9.39,5.9,5.9,0,0,1,3-2.08,0.39,0.39,0,1,1,.22.75,5.08,5.08,0,1,0,2.9,0,0.39,0.39,0,0,1,.22-0.75,5.9,5.9,0,0,1,3,2.08,5.86,5.86,0,0,1-4.67,9.39h0Z" transform="translate(-269.2 -2116.12)" style="fill: none;stroke: #beddde;stroke-miterlimit: 10;stroke-width: 0.25px"/>
      </g>
    </g>
    <g style="opacity: 0.4">
      <rect x="308.33" y="140.03" width="84.59" height="29.77" rx="4.67" ry="4.67" style="fill: #fff;stroke: #beddde;stroke-miterlimit: 10;stroke-dasharray: 6,2"/>
      <g>
        <path d="M592.2,2271.07a0.39,0.39,0,0,1-.39-0.39v-7a0.39,0.39,0,0,1,.78,0v7A0.39,0.39,0,0,1,592.2,2271.07Z" transform="translate(-269.2 -2116.12)" style="fill: none;stroke: #beddde;stroke-miterlimit: 10;stroke-width: 0.25px"/>
        <path d="M592.2,2276.53a5.86,5.86,0,0,1-4.67-9.39,5.9,5.9,0,0,1,3-2.08,0.39,0.39,0,1,1,.22.75,5.08,5.08,0,1,0,2.9,0,0.39,0.39,0,0,1,.22-0.75,5.9,5.9,0,0,1,3,2.08,5.86,5.86,0,0,1-4.67,9.39h0Z" transform="translate(-269.2 -2116.12)" style="fill: none;stroke: #beddde;stroke-miterlimit: 10;stroke-width: 0.25px"/>
      </g>
    </g>
    <line x1="401.65" y1="163.53" x2="433.76" y2="169.07" style="fill: none;stroke: #beddde;stroke-miterlimit: 10;stroke-width: 0.75px;stroke-dasharray: 6,2"/>
    <g>
      <path d="M759.1,2282.62a26.36,26.36,0,0,0-5.69-1.63,113,113,0,0,0-35.76,0,26.27,26.27,0,0,0-5.69,1.63c-1.7.77-2.57,1.66-2.57,2.64V2308c0,1,.86,1.87,2.57,2.64a26.36,26.36,0,0,0,5.69,1.63,112.95,112.95,0,0,0,35.76,0,26.27,26.27,0,0,0,5.69-1.63c1.7-.77,2.57-1.66,2.57-2.64v-22.77c0-1-.86-1.87-2.57-2.64h0" transform="translate(-269.2 -2116.12)" style="fill: #fff;opacity: 0.4"/>
      <path d="M759.47,2282.42a26.75,26.75,0,0,0-5.78-1.65,114.68,114.68,0,0,0-36.28,0,26.65,26.65,0,0,0-5.78,1.65c-1.73.78-2.6,1.68-2.6,2.68v23.11c0,1,.88,1.9,2.6,2.68a26.75,26.75,0,0,0,5.78,1.65,114.6,114.6,0,0,0,36.28,0,26.65,26.65,0,0,0,5.78-1.65c1.73-.78,2.6-1.68,2.6-2.68v-23.11c0-1-.88-1.9-2.6-2.68h0Zm-41.31.2a110.72,110.72,0,0,1,34.79,0c5,1,6.34,2,6.34,2.48s-1.32,1.52-6.34,2.48a110.72,110.72,0,0,1-34.79,0c-5-1-6.34-2-6.34-2.48S713.15,2283.58,718.16,2282.62Zm34.79,28.06a110.72,110.72,0,0,1-34.79,0c-5-1-6.34-2-6.34-2.48v-4.94a27.64,27.64,0,0,0,5.59,1.57,114.6,114.6,0,0,0,36.28,0,27.59,27.59,0,0,0,5.59-1.57v4.94c0,0.44-1.32,1.52-6.34,2.48h0Zm0-7.7a110.72,110.72,0,0,1-34.79,0c-5-1-6.34-2-6.34-2.48v-4.94a27.64,27.64,0,0,0,5.59,1.57,114.68,114.68,0,0,0,36.28,0,27.59,27.59,0,0,0,5.59-1.57v4.94C759.29,2300.94,758,2302,752.95,2303Zm0-7.7a110.72,110.72,0,0,1-34.79,0c-5-1-6.34-2-6.34-2.48v-4.94a27.64,27.64,0,0,0,5.59,1.57,114.68,114.68,0,0,0,36.28,0,27.59,27.59,0,0,0,5.59-1.57v4.94C759.29,2293.24,758,2294.31,752.95,2295.27Z" transform="translate(-269.2 -2116.12)" style="fill: none;stroke: #beddde;stroke-miterlimit: 10;stroke-width: 0.75px;stroke-dasharray: 6,2"/>
    </g>
    <path d="M368.6,2261.56a4.68,4.68,0,0,1-.83-0.07l-40.67-7.42c-1.09-.2-1.6-0.74-1.14-1.22a3.59,3.59,0,0,1,2.8-.5l39.84,7.27,39.84-7.27a3.59,3.59,0,0,1,2.8.5c0.46,0.47-.05,1-1.14,1.22l-40.67,7.42A4.68,4.68,0,0,1,368.6,2261.56Z" transform="translate(-269.2 -2116.12)"/>
    <path d="M368.6,2267.13a4.68,4.68,0,0,1-.83-0.07l-40.67-7.42c-1.09-.2-1.6-0.74-1.14-1.22a3.59,3.59,0,0,1,2.8-.5l39.84,7.27,39.84-7.27a3.59,3.59,0,0,1,2.8.5c0.46,0.47-.05,1-1.14,1.22l-40.67,7.42A4.68,4.68,0,0,1,368.6,2267.13Z" transform="translate(-269.2 -2116.12)"/>
    <g style="opacity: 0.8">
      <rect x="271.33" y="158.03" width="84.59" height="29.77" rx="4.67" ry="4.67" style="fill: #fff;stroke: #7ec2c3;stroke-miterlimit: 10;stroke-dasharray: 6,2"/>
      <g>
        <path d="M555.2,2289.07a0.39,0.39,0,0,1-.39-0.39v-7a0.39,0.39,0,0,1,.78,0v7A0.39,0.39,0,0,1,555.2,2289.07Z" transform="translate(-269.2 -2116.12)" style="fill: none;stroke: #7ec2c3;stroke-miterlimit: 10;stroke-width: 0.25px"/>
        <path d="M555.2,2294.53a5.86,5.86,0,0,1-4.67-9.39,5.9,5.9,0,0,1,3-2.08,0.39,0.39,0,1,1,.22.75,5.08,5.08,0,1,0,2.9,0,0.39,0.39,0,0,1,.22-0.75,5.9,5.9,0,0,1,3,2.08,5.86,5.86,0,0,1-4.67,9.39h0Z" transform="translate(-269.2 -2116.12)" style="fill: none;stroke: #7ec2c3;stroke-miterlimit: 10;stroke-width: 0.25px"/>
      </g>
    </g>
    <g style="opacity: 0.8">
      <rect x="235.33" y="170.03" width="84.59" height="29.77" rx="4.67" ry="4.67" style="fill: #fff;stroke: #7ec2c3;stroke-miterlimit: 10;stroke-dasharray: 6,2"/>
      <g>
        <path d="M519.2,2301.07a0.39,0.39,0,0,1-.39-0.39v-7a0.39,0.39,0,0,1,.78,0v7A0.39,0.39,0,0,1,519.2,2301.07Z" transform="translate(-269.2 -2116.12)" style="fill: none;stroke: #7ec2c3;stroke-miterlimit: 10;stroke-width: 0.25px"/>
        <path d="M519.2,2306.53a5.86,5.86,0,0,1-4.67-9.39,5.9,5.9,0,0,1,3-2.08,0.39,0.39,0,1,1,.22.75,5.08,5.08,0,1,0,2.9,0,0.39,0.39,0,0,1,.22-0.75,5.9,5.9,0,0,1,3,2.08,5.86,5.86,0,0,1-4.67,9.39h0Z" transform="translate(-269.2 -2116.12)" style="fill: none;stroke: #7ec2c3;stroke-miterlimit: 10;stroke-width: 0.25px"/>
      </g>
    </g>
    <g>
      <rect x="195.83" y="188.53" width="84.59" height="29.77" rx="4.67" ry="4.67" style="fill: #fff;stroke-miterlimit: 10;stroke-width: 2px;stroke: url(#Blowfish_Grad)"/>
      <g>
        <path d="M479.7,2319.57a0.39,0.39,0,0,1-.39-0.39v-7a0.39,0.39,0,0,1,.78,0v7A0.39,0.39,0,0,1,479.7,2319.57Z" transform="translate(-269.2 -2116.12)" style="stroke-miterlimit: 10;stroke: url(#Blowfish_Grad-2)"/>
        <path d="M479.7,2325a5.86,5.86,0,0,1-4.67-9.39,5.9,5.9,0,0,1,3-2.08,0.39,0.39,0,1,1,.22.75,5.08,5.08,0,1,0,2.9,0,0.39,0.39,0,0,1,.22-0.75,5.9,5.9,0,0,1,3,2.08,5.86,5.86,0,0,1-4.67,9.39h0Z" transform="translate(-269.2 -2116.12)" style="stroke-miterlimit: 10;stroke: url(#Blowfish_Grad-3)"/>
      </g>
    </g>
    <g>
      <rect x="165.83" y="201.03" width="84.59" height="29.77" rx="4.67" ry="4.67" style="fill: #fff;stroke-miterlimit: 10;stroke-width: 2px;stroke: url(#Blowfish_Grad-4)"/>
      <g>
        <path d="M449.7,2332.07a0.39,0.39,0,0,1-.39-0.39v-7a0.39,0.39,0,0,1,.78,0v7A0.39,0.39,0,0,1,449.7,2332.07Z" transform="translate(-269.2 -2116.12)" style="stroke-miterlimit: 10;stroke: url(#Blowfish_Grad-5)"/>
        <path d="M449.7,2337.53a5.86,5.86,0,0,1-4.67-9.39,5.9,5.9,0,0,1,3-2.08,0.39,0.39,0,1,1,.22.75,5.08,5.08,0,1,0,2.9,0,0.39,0.39,0,0,1,.22-0.75,5.9,5.9,0,0,1,3,2.08,5.86,5.86,0,0,1-4.67,9.39h0Z" transform="translate(-269.2 -2116.12)" style="stroke-miterlimit: 10;stroke: url(#Blowfish_Grad-6)"/>
      </g>
    </g>
    <g>
      <line x1="314.86" y1="313.93" x2="509.87" y2="211.91" style="fill: none;stroke: #666;stroke-miterlimit: 10;stroke-width: 0.5px"/>
      <polygon points="509.49 214.2 509.33 212.19 507.77 210.92 512.52 210.52 509.49 214.2" style="fill: #666"/>
    </g>
    <text transform="translate(359.31 285.84) rotate(-27.7)" style="font-size: 12px;font-family: Myriad Pro">ho<tspan x="13.25" y="0">r</tspan><tspan x="17.22" y="0">i</tspan><tspan x="20.03" y="0">z</tspan><tspan x="25.08" y="0">o</tspan><tspan x="31.67" y="0">n</tspan><tspan x="38.28" y="0">tal au</tspan><tspan x="65.81" y="0">t</tspan><tspan x="69.71" y="0">oscaling</tspan></text>
    <g>
      <line x1="29.96" y1="123.72" x2="239.04" y2="47.62" style="fill: none;stroke: #666;stroke-miterlimit: 10;stroke-width: 0.5px"/>
      <polygon points="239.21 50.21 242.41 46.39 237.5 45.52 239.21 50.21" style="fill: #666"/>
    </g>
    <text transform="translate(95.99 92.93) rotate(-20.14)" style="font-size: 12px;font-family: Myriad Pro">+ pagevie<tspan x="49.62" y="0">w</tspan><tspan x="58.38" y="0">s</tspan></text>
    <line x1="124.21" y1="172.65" x2="164.56" y2="193.21" style="fill: none;stroke: #000;stroke-miterlimit: 10"/>
    <line x1="138.89" y1="164.63" x2="185.2" y2="181.56" style="fill: none;stroke: #000;stroke-miterlimit: 10"/>
    <line x1="254.96" y1="230.32" x2="279.63" y2="242.26" style="fill: none;stroke: #000;stroke-miterlimit: 10"/>
    <line x1="329.42" y1="196.4" x2="357.42" y2="203.81" style="fill: none;stroke: #7ec2c3;stroke-miterlimit: 10;stroke-width: 0.75px;stroke-dasharray: 6,2"/>
    <line x1="157.51" y1="155.24" x2="204.92" y2="168.19" style="fill: none;stroke: #7ec2c3;stroke-miterlimit: 10;stroke-dasharray: 6,2"/>
    <line x1="174.59" y1="146.18" x2="226.35" y2="155.2" style="fill: none;stroke: #7ec2c3;stroke-miterlimit: 10;stroke-dasharray: 6,2"/>
    <g>
      <path d="M368.6,2256a4.68,4.68,0,0,1-.83-0.07l-40.67-7.42c-0.79-.14-1.31-0.48-1.31-0.86s0.52-.71,1.31-0.86l40.67-7.42a4.8,4.8,0,0,1,1.66,0l40.67,7.42c0.79,0.14,1.31.48,1.31,0.86s-0.52.71-1.31,0.86l-40.67,7.42A4.68,4.68,0,0,1,368.6,2256Zm-35.15-8.35,35.15,6.41,35.15-6.41-35.15-6.41Z" transform="translate(-269.2 -2116.12)"/>
      <polygon points="64.18 131.53 99.33 137.94 134.49 131.53 99.33 125.11 64.18 131.53" style="fill: #fff"/>
    </g>
    <path d="M604.89,2363.89a26.36,26.36,0,0,0-5.69-1.63,113,113,0,0,0-35.76,0,26.27,26.27,0,0,0-5.69,1.63c-1.7.77-2.57,1.66-2.57,2.64v22.77c0,1,.86,1.87,2.57,2.64a26.36,26.36,0,0,0,5.69,1.63,112.95,112.95,0,0,0,35.76,0,26.27,26.27,0,0,0,5.69-1.63c1.7-.77,2.57-1.66,2.57-2.64v-22.77c0-1-.86-1.87-2.57-2.64h0" transform="translate(-269.2 -2116.12)" style="fill: #fff"/>
    <path d="M605.61,2363.44a26.75,26.75,0,0,0-5.78-1.65,114.68,114.68,0,0,0-36.28,0,26.65,26.65,0,0,0-5.78,1.65c-1.73.78-2.6,1.68-2.6,2.68v23.11c0,1,.88,1.9,2.6,2.68a26.75,26.75,0,0,0,5.78,1.65,114.6,114.6,0,0,0,36.28,0,26.65,26.65,0,0,0,5.78-1.65c1.73-.78,2.6-1.68,2.6-2.68v-23.11c0-1-.88-1.9-2.6-2.68h0Zm-41.31.2a110.72,110.72,0,0,1,34.79,0c5,1,6.34,2,6.34,2.48s-1.32,1.52-6.34,2.48a110.72,110.72,0,0,1-34.79,0c-5-1-6.34-2-6.34-2.48S559.29,2364.6,564.3,2363.64Zm34.79,28.06a110.72,110.72,0,0,1-34.79,0c-5-1-6.34-2-6.34-2.48v-4.94a27.64,27.64,0,0,0,5.59,1.57,114.6,114.6,0,0,0,36.28,0,27.59,27.59,0,0,0,5.59-1.57v4.94c0,0.44-1.32,1.52-6.34,2.48h0Zm0-7.7a110.72,110.72,0,0,1-34.79,0c-5-1-6.34-2-6.34-2.48v-4.94a27.64,27.64,0,0,0,5.59,1.57,114.68,114.68,0,0,0,36.28,0,27.59,27.59,0,0,0,5.59-1.57v4.94C605.43,2382,604.1,2383,599.09,2384Zm0-7.7a110.72,110.72,0,0,1-34.79,0c-5-1-6.34-2-6.34-2.48v-4.94a27.64,27.64,0,0,0,5.59,1.57,114.68,114.68,0,0,0,36.28,0,27.59,27.59,0,0,0,5.59-1.57v4.94C605.43,2374.25,604.1,2375.33,599.09,2376.29Z" transform="translate(-269.2 -2116.12)"/>
    <g>
      <path d="M681.8,2319.81a26.36,26.36,0,0,0-5.69-1.63,113,113,0,0,0-35.76,0,26.27,26.27,0,0,0-5.69,1.63c-1.7.77-2.57,1.66-2.57,2.64v22.77c0,1,.86,1.87,2.57,2.64a26.36,26.36,0,0,0,5.69,1.63,112.95,112.95,0,0,0,35.76,0,26.27,26.27,0,0,0,5.69-1.63c1.7-.77,2.57-1.66,2.57-2.64v-22.77c0-1-.86-1.87-2.57-2.64h0" transform="translate(-269.2 -2116.12)" style="fill: #fff"/>
      <path d="M682.17,2319.61a26.75,26.75,0,0,0-5.78-1.65,114.68,114.68,0,0,0-36.28,0,26.65,26.65,0,0,0-5.78,1.65c-1.73.78-2.6,1.68-2.6,2.68v23.11c0,1,.88,1.9,2.6,2.68a26.75,26.75,0,0,0,5.78,1.65,114.6,114.6,0,0,0,36.28,0,26.65,26.65,0,0,0,5.78-1.65c1.73-.78,2.6-1.68,2.6-2.68v-23.11c0-1-.88-1.9-2.6-2.68h0Zm-41.31.2a110.72,110.72,0,0,1,34.79,0c5,1,6.34,2,6.34,2.48s-1.32,1.52-6.34,2.48a110.72,110.72,0,0,1-34.79,0c-5-1-6.34-2-6.34-2.48S635.85,2320.77,640.86,2319.81Zm34.79,28.06a110.72,110.72,0,0,1-34.79,0c-5-1-6.34-2-6.34-2.48v-4.94a27.64,27.64,0,0,0,5.59,1.57,114.6,114.6,0,0,0,36.28,0,27.59,27.59,0,0,0,5.59-1.57v4.94c0,0.44-1.32,1.52-6.34,2.48h0Zm0-7.7a110.72,110.72,0,0,1-34.79,0c-5-1-6.34-2-6.34-2.48v-4.94a27.64,27.64,0,0,0,5.59,1.57,114.68,114.68,0,0,0,36.28,0,27.59,27.59,0,0,0,5.59-1.57v4.94C682,2338.13,680.66,2339.21,675.65,2340.17Zm0-7.7a110.72,110.72,0,0,1-34.79,0c-5-1-6.34-2-6.34-2.48v-4.94a27.64,27.64,0,0,0,5.59,1.57,114.68,114.68,0,0,0,36.28,0,27.59,27.59,0,0,0,5.59-1.57V2330C682,2330.43,680.66,2331.51,675.65,2332.47Z" transform="translate(-269.2 -2116.12)" style="fill: none;stroke: #7ec2c3;stroke-miterlimit: 10;stroke-width: 0.75px;stroke-dasharray: 6,2"/>
    </g>
    <line x1="193.3" y1="137.16" x2="247.23" y2="143.99" style="fill: none;stroke: #beddde;stroke-miterlimit: 10;stroke-width: 0.75px;stroke-dasharray: 6,2"/>
    <line x1="212.53" y1="126.85" x2="266.75" y2="130.18" style="fill: none;stroke: #beddde;stroke-miterlimit: 10;stroke-width: 0.75px;stroke-dasharray: 6,2"/>
  </g>
</svg>
