<svg id="Layer_1" data-name="Layer 1" xmlns="http://www.w3.org/2000/svg" viewBox="0 0 128.91 217.91"><defs><style>.cls-1{opacity:0.28;}.cls-2{fill:#7ec2c3;}.cls-3{fill:#fff;}</style></defs><title>fixed-bubble-sm</title><g class="cls-1"><circle class="cls-2" cx="1041.64" cy="3395.36" r="30.46" transform="matrix(0.1, -1, 1, 0.1, -3383.54, 896.78)"/><path class="cls-3" d="M1047,3374.49c1.85,4.7-5.18,2.26-12.1,5s-11.09,9.6-13,4.9,2.69-9.66,9.6-12.38S1045.1,3369.78,1047,3374.49Z" transform="translate(-945.19 -3207.91)"/></g><g class="cls-1"><path class="cls-2" d="M1014,3336.66a64.45,64.45,0,1,1,59.94-68.67A64.44,64.44,0,0,1,1014,3336.66Z" transform="translate(-945.19 -3207.91)"/><path class="cls-3" d="M1055.06,3276.25c-9.18,5.5-6.5-10-14.6-23.54s-23.89-19.84-14.71-25.34,21.09,2.26,29.18,15.76S1064.24,3270.74,1055.06,3276.25Z" transform="translate(-945.19 -3207.91)"/></g></svg>