<svg id="Layer_1" data-name="Layer 1" xmlns="http://www.w3.org/2000/svg" viewBox="0 0 35 36"><defs><style>.cls-1{fill:#f9b233;}</style></defs><title>icon-facebook</title><path class="cls-1" d="M553,5662a5.78,5.78,0,0,1,4.35,2.06,6.38,6.38,0,0,1,1.61,4.81V5691a6.53,6.53,0,0,1-1.61,4.87A5.85,5.85,0,0,1,553,5698h-4v-13h4.29l0.69-7h-5v-2.84a3,3,0,0,1,.39-1.94,2.31,2.31,0,0,1,2-.65l2.66,0v-4.77a29.83,29.83,0,0,0-4-.21,6.5,6.5,0,0,0-7,7.06V5678h-5v7h5v13H530.9a7.19,7.19,0,0,1-6.9-7v-22.13a7.08,7.08,0,0,1,6.9-6.87H553Z" transform="translate(-524 -5662)"/></svg>