<svg id="Layer_1" data-name="Layer 1" xmlns="http://www.w3.org/2000/svg" viewBox="0 0 37 36"><defs><style>.cls-1{fill:#f9b233;}</style></defs><title>icon-linkedin</title><path class="cls-1" d="M577,5692h5v-17h-5v17Zm5.35-20.87a2.72,2.72,0,0,0-.83-2,3,3,0,0,0-2.14-.78,3.07,3.07,0,0,0-2.18.78,2.59,2.59,0,0,0-.84,2,2.76,2.76,0,0,0,.82,2,3,3,0,0,0,2.13.85h0a3.07,3.07,0,0,0,2.19-.85A2.74,2.74,0,0,0,582.35,5671.13ZM596,5692h5v-9.11c0-2.37-.48-4.16-1.6-5.37a5.84,5.84,0,0,0-4.41-2c-2.09,0-3.65.5-4.78,2.5H591v-3h-6.06c0,1,0,8,0,17H591v-8.88a9.6,9.6,0,0,1-.21-1.29,3.15,3.15,0,0,1,.85-1.37,2.57,2.57,0,0,1,1.69-.56c1.78,0,2.66,1.21,2.66,3.62V5692Zm11-22.95v22.13a6.77,6.77,0,0,1-2.13,4.78,6.9,6.9,0,0,1-4.88,2H577.86a7.92,7.92,0,0,1-5.3-2c-1.3-1.3-2.56-2.95-2.56-4.78v-22.13c0-1.83,1.26-3.6,2.56-4.9a8,8,0,0,1,5.3-2.16H600A7.34,7.34,0,0,1,607,5669.05Z" transform="translate(-570 -5662)"/></svg>