<svg id="Layer_1" data-name="Layer 1" xmlns="http://www.w3.org/2000/svg" viewBox="0 0 540.48 80.24"><defs><style>.cls-1{fill:#7ec2c3;}</style></defs><title>logo</title><path class="cls-1" d="M1847.85,2579.8a18.78,18.78,0,0,0-5.4-4.08,21.17,21.17,0,0,0-4.57-1.68,19.59,19.59,0,0,0,7.45-5.39,16.51,16.51,0,0,0,3.73-11c0-4.22-.86-7.67-2.56-10.26a17.82,17.82,0,0,0-6.63-6,27.67,27.67,0,0,0-9.09-2.83,71.7,71.7,0,0,0-9.89-.7H1793a0.77,0.77,0,0,0-.77.77v74.89a0.77,0.77,0,0,0,.77.77h30.68a49.45,49.45,0,0,0,10.15-1.08,29.54,29.54,0,0,0,9.28-3.59,20.78,20.78,0,0,0,6.81-6.64,18.83,18.83,0,0,0,2.66-10.3,20.42,20.42,0,0,0-1.21-7A17.55,17.55,0,0,0,1847.85,2579.8ZM1828,2598.35a17.71,17.71,0,0,1-3.7.41h-14v-15.49h11.71a31.6,31.6,0,0,1,4.23.31,16.48,16.48,0,0,1,4.14,1.11,7.75,7.75,0,0,1,3,2.26,5.91,5.91,0,0,1,1.15,3.8,7.24,7.24,0,0,1-.89,3.73,7.71,7.71,0,0,1-2.36,2.5A9.43,9.43,0,0,1,1828,2598.35Zm2.24-34.53a6.49,6.49,0,0,1-2.13,2.27,9.64,9.64,0,0,1-3.09,1.27,16,16,0,0,1-3.58.4h-11.18v-14.43h10.44a21.16,21.16,0,0,1,3.77.35,11.65,11.65,0,0,1,3.37,1.14,5.85,5.85,0,0,1,3.19,5.56A6.92,6.92,0,0,1,1830.22,2563.81Z" transform="translate(-1792.2 -2535.92)"/><path class="cls-1" d="M1909.22,2597.48h-29.8v-58.89a0.77,0.77,0,0,0-.77-0.77h-16.5a0.77,0.77,0,0,0-.77.77v74.89a0.77,0.77,0,0,0,.77.77h47.07a0.77,0.77,0,0,0,.77-0.77v-15.23A0.77,0.77,0,0,0,1909.22,2597.48Z" transform="translate(-1792.2 -2535.92)"/><path class="cls-1" d="M1984.21,2546.76a38.07,38.07,0,0,0-13.06-8,49.8,49.8,0,0,0-32.91,0,38.06,38.06,0,0,0-13.06,8,36.65,36.65,0,0,0-8.59,12.69,46.25,46.25,0,0,0,0,33.16,36.64,36.64,0,0,0,8.59,12.69,38,38,0,0,0,13.06,8,49.77,49.77,0,0,0,32.91,0,38,38,0,0,0,13.06-8,36.58,36.58,0,0,0,8.59-12.69,46.24,46.24,0,0,0,0-33.16A36.6,36.6,0,0,0,1984.21,2546.76Zm-29.51,52.62a23.82,23.82,0,0,1-9.28-1.74,20.79,20.79,0,0,1-7.09-4.85,21.49,21.49,0,0,1-4.54-7.35,28.47,28.47,0,0,1,0-18.77,21.37,21.37,0,0,1,4.54-7.41,20.82,20.82,0,0,1,7.09-4.84,25.63,25.63,0,0,1,18.55,0,20.87,20.87,0,0,1,7.09,4.84,21.44,21.44,0,0,1,4.54,7.41,28.51,28.51,0,0,1,0,18.77,21.55,21.55,0,0,1-4.55,7.35,20.84,20.84,0,0,1-7.09,4.85A23.82,23.82,0,0,1,1954.7,2599.39Z" transform="translate(-1792.2 -2535.92)"/><path class="cls-1" d="M2104.7,2537.82H2088a0.77,0.77,0,0,0-.75.58l-12,47.05-14.85-47.09a0.77,0.77,0,0,0-.73-0.54H2044.3a0.77,0.77,0,0,0-.73.53l-14.94,45.84-11.4-45.79a0.77,0.77,0,0,0-.75-0.59h-18a0.77,0.77,0,0,0-.74,1L2020,2613.7a0.77,0.77,0,0,0,.74.55h14.18a0.77,0.77,0,0,0,.73-0.54l15.87-49.86,15.88,49.86a0.77,0.77,0,0,0,.73.54h14.7a0.77,0.77,0,0,0,.74-0.56l21.89-74.89A0.77,0.77,0,0,0,2104.7,2537.82Z" transform="translate(-1792.2 -2535.92)"/><path class="cls-1" d="M2163,2537.82h-50.25a0.77,0.77,0,0,0-.77.77v74.89a0.77,0.77,0,0,0,.77.77h16.5a0.77,0.77,0,0,0,.77-0.77v-28.43h30.43a0.77,0.77,0,0,0,.77-0.77v-15.23a0.77,0.77,0,0,0-.77-0.77H2130v-13.69h33a0.77,0.77,0,0,0,.77-0.77v-15.23A0.77,0.77,0,0,0,2163,2537.82Z" transform="translate(-1792.2 -2535.92)"/><rect class="cls-1" x="381.65" y="1.9" width="18.04" height="76.43" rx="0.77" ry="0.77"/><path class="cls-1" d="M2246,2573.37a35.29,35.29,0,0,0-8.49-3.67c-2.93-.84-5.71-1.69-8.27-2.53a23.35,23.35,0,0,1-6.2-3,5.19,5.19,0,0,1-2.21-4.56,5.24,5.24,0,0,1,.91-3.15,7.1,7.1,0,0,1,2.49-2.15,13.46,13.46,0,0,1,3.4-1.25,16.9,16.9,0,0,1,9.79.77,11.07,11.07,0,0,1,5.1,3.51,0.77,0.77,0,0,0,.58.29,0.64,0.64,0,0,0,.59-0.25L2255,2545a0.77,0.77,0,0,0-.06-1.09,29.2,29.2,0,0,0-11-6.19,41.38,41.38,0,0,0-23.4-.26,28.46,28.46,0,0,0-9.4,4.73,23.84,23.84,0,0,0-6.56,7.87,23.36,23.36,0,0,0-2.47,10.94c0,4.3.92,7.82,2.73,10.48a21.17,21.17,0,0,0,6.75,6.36,38.59,38.59,0,0,0,8.63,3.78c3,0.92,5.86,1.84,8.43,2.74a23.3,23.3,0,0,1,6.3,3.22,5.56,5.56,0,0,1,2.29,4.73,5.29,5.29,0,0,1-.87,3.06,7.17,7.17,0,0,1-2.4,2.2,12.55,12.55,0,0,1-3.49,1.34,17.21,17.21,0,0,1-11.55-1.32,16.48,16.48,0,0,1-6.12-5,0.75,0.75,0,0,0-.58-0.31,0.79,0.79,0,0,0-.6.25l-11.74,12.9a0.77,0.77,0,0,0,0,1.09,34.86,34.86,0,0,0,11.9,7.35,42.94,42.94,0,0,0,25.06.75,27.7,27.7,0,0,0,9.46-4.68,22.94,22.94,0,0,0,6.51-8,25,25,0,0,0,2.41-11.24c0-4.5-.9-8.16-2.66-10.89A20.57,20.57,0,0,0,2246,2573.37Z" transform="translate(-1792.2 -2535.92)"/><path class="cls-1" d="M2331.91,2537.82h-16.5a0.77,0.77,0,0,0-.77.77v27.16h-30.51v-27.16a0.77,0.77,0,0,0-.77-0.77h-16.5a0.77,0.77,0,0,0-.77.77v74.89a0.77,0.77,0,0,0,.77.77h16.5a0.77,0.77,0,0,0,.77-0.77v-31.6h30.51v31.6a0.77,0.77,0,0,0,.77.77h16.5a0.77,0.77,0,0,0,.77-0.77v-74.89A0.77,0.77,0,0,0,2331.91,2537.82Z" transform="translate(-1792.2 -2535.92)"/></svg>