<svg xmlns="http://www.w3.org/2000/svg" viewBox="0 0 1290.11 413.21"><defs><style>.cls-1{isolation:isolate;}.cls-2{fill:#c6c6c6;opacity:0.25;mix-blend-mode:multiply;}</style></defs><title>world-bg-1</title><g class="cls-1"><g id="Layer_1" data-name="Layer 1"><path class="cls-2" d="M1289.94,5467c0-38.72,4.19-171.91-28.75-184.73-9.6-3.74-3.13-46.64-15.63-76.1s-15.63,54-46.89,49.09-25,58.91-25,58.91l-6.25,36.82-3.32-14.34c-1.1-9.45-11.65-35.26-13.93-41.47-2.52-6.95-7.13-23.88-7.18-27.56-1.94-20.6-12.42-19.14-27.58-17.57-18.85.88-22.06,34-22.06,34l12.93,50.17-36.83,4.4-2.08-14.67c-3.13-22.09-25-24.55-25-24.55l-48.94,8.34c-2.47-2.76-4.62-6.66-2.33-10.61,2.52-10-33.23-24.91-33.23-24.91l-22.51,13.91-0.88-.42a32.91,32.91,0,0,1,4.73-25.59c12.51-19.64-34.38-34.37-34.38-34.37l-24.44,3.94s-12.93.79-12.93-6.57-12.93-13.74-12.93-13.74l-15.34-.81s-9.38,27-9.38,46.64-16.35-51.21-16.35-51.21l-26.62,4.78-3.91,21.88,6.25,54s-9.52,39-3.86,45.37c-12.46-3.87-21.14-61.22-38.79-66.89-14.66-4.82-29.84,12.34-39.18,13.94l-37-14.51c-25-9.82-50,2.45-50,2.45l-18.76,29.46-1.13,31.36-17.63,12.82-2.45,7c-9-4.51-16.45-10.72-20.61-19.91-1.62,2-11.61,6.22-13.91,9.75-10.9-14.12-30.24-20.93-23.37-40.71-20-11.9-37.18-40.55-49,3.8-7.18-2.57-10.2,1.17-17.74,1.19,1.69,11,2.28,21.51-7.85,25.56,1.31,3.72,1.42,8.68,2.09,12.67-10.42-3.06-27.18-1.17-33.49-3-11.42-3.28-20.39-14-33.65-15.59,0.18-2.78,1.07-5.07,1.55-7.23-10.65-5.4-22.79-41.28-20.54-49-13-6.29-53.74-27.64-51.4,2.38-3.11-1-6.76-1.2-9.58-2,0.09,17.42,9.17,47.2-10.43,56.94,2.28,7.69-.91,9.19-1.31,15-21.25-6.1-47-27.48-62-41.75-30.82-29.44-3.78-26.57.69-56.36,2.77-18.49-6-21.14-14-34.12-0.41-.67-11.28-14.58-11.07-14.34,1,1.07-3.32-13.13-5.37-16-5.13-7.15-44.84-47-49.92-49.39-9.21-4.24-58.23-.87-67.37,6-28.2,21.12-34.25,77.68-56.6,105.27l-1.81,2c-2.28,6.11-1.36,2.31-2.28,6.11-2.3-.59,2.1.7,0,0C15.08,5298,.53,5324.82.53,5349c0,38.33-.53,73.49-0.53,118m503.07,61.88-192.52,3c-12-4.83,42.86,8.07,32.05.9m390.16-7.39a2.79,2.79,0,0,1-.64-0.4l1.44,0.08A6.63,6.63,0,0,1,732.75,5525.43Zm68.75-212.81-1-3.87c2.85,3.25,5.32,6.08,6.85,7.88a6.26,6.26,0,0,1,.66,1Z" transform="translate(0 -5121.83)"/></g></g></svg>