<svg xmlns="http://www.w3.org/2000/svg" xmlns:xlink="http://www.w3.org/1999/xlink" viewBox="0 0 1313.26 839.53"><defs><style>.cls-1{fill:none;}.cls-2{isolation:isolate;}.cls-3{fill:url(#New_Gradient_Swatch_2);}.cls-4{clip-path:url(#clip-path);}.cls-5{opacity:0.3;}.cls-6,.cls-8{fill:#7ec2c3;}.cls-10,.cls-11,.cls-7{fill:#283535;}.cls-11,.cls-12,.cls-7,.cls-8{stroke:#283535;}.cls-7{stroke-width:9.09px;}.cls-8{stroke-width:4.54px;}.cls-9{fill:#beddde;}.cls-10{mix-blend-mode:multiply;}.cls-11{stroke-width:6.52px;}.cls-12{fill:#f9b233;stroke-width:3.26px;}.cls-13{fill:#fff;opacity:0.21;}</style><linearGradient id="New_Gradient_Swatch_2" x1="656" y1="246.7" x2="656" y2="1014.71" gradientUnits="userSpaceOnUse"><stop offset="0" stop-color="#1a1c22"/><stop offset="1" stop-color="#293737"/></linearGradient><clipPath id="clip-path" transform="translate(-2838.39 -3284.51)"><rect class="cls-1" x="2838.39" y="3284.51" width="1312" height="768"/></clipPath></defs><title>scene-contact-02-bg</title><g class="cls-2"><g id="Layer_1" data-name="Layer 1"><rect class="cls-3" width="1312" height="768"/><g class="cls-4"><g class="cls-5"><path class="cls-6" d="M4064.57,3568.76c-71-164.79-262.1-240.82-426.9-169.83a324.41,324.41,0,0,0-92.11,59.78,132.84,132.84,0,0,0-104.3,233.81,323.71,323.71,0,0,0,26.55,133.28c71,164.84,262.11,240.88,426.88,169.89S4135.57,3733.61,4064.57,3568.76Z" transform="translate(-2838.39 -3284.51)"/><path class="cls-6" d="M3542,3351.57a37.37,37.37,0,1,0,15.89,50.4A37.36,37.36,0,0,0,3542,3351.57Z" transform="translate(-2838.39 -3284.51)"/><path class="cls-6" d="M3474.87,3916.52a100.11,100.11,0,1,0,42.58,135A100.08,100.08,0,0,0,3474.87,3916.52Z" transform="translate(-2838.39 -3284.51)"/><path class="cls-6" d="M3316.11,3621.42a25.53,25.53,0,1,0-10.86-34.44A25.53,25.53,0,0,0,3316.11,3621.42Z" transform="translate(-2838.39 -3284.51)"/></g><path class="cls-7" d="M3925.46,4082.09s23.58-10.21,35.92-40.78,14.36-129.31,3.78-156.87-45-23.49-58-19.61-62.36,20-57.7,70.44S3878.69,4073,3890,4080,3911.28,4087.86,3925.46,4082.09Z" transform="translate(-2838.39 -3284.51)"/><path class="cls-7" d="M3872.52,3895.74c1.9,4.78,19.14,2.95,36.86-4.11s29.21-16.65,27.3-21.43-19.14-2.95-36.86,4.1S3870.62,3891,3872.52,3895.74Z" transform="translate(-2838.39 -3284.51)"/><path class="cls-7" d="M3976.76,4081.3s24.42-8,39.52-37.3,28.42-58.61,20.43-87-42.63-27.53-55.95-24.87-63.94,14.21-63.94,64.83,14.21,71,24.87,79S3962.1,4085.74,3976.76,4081.3Z" transform="translate(-2838.39 -3284.51)"/><path class="cls-7" d="M3944.75,3959.7c1.45,4.94,17.46,4.57,35.76-.82s30.61-13.77,29.15-18.71-17.46-4.57-35.76.82S3943.29,3954.76,3944.75,3959.7Z" transform="translate(-2838.39 -3284.51)"/><path class="cls-7" d="M3866.53,4081.06s-19.4-.68-34.52-21.24c-13.3-18.08-24.15-34.61-22.9-54.92,1.17-19.12,19.51-29.39,27.27-32.19,8-2.91,41.73-14.11,53.87,19.69,14.34,39.92,8.87,62.8,2.46,73.54S3879,4081.16,3866.53,4081.06Z" transform="translate(-2838.39 -3284.51)"/><path class="cls-8" d="M3925.46,4082.09s23.58-10.21,35.92-40.78,14.36-129.31,3.78-156.87-45-23.49-58-19.61-62.36,20-57.7,70.44S3878.69,4073,3890,4080,3911.28,4087.86,3925.46,4082.09Z" transform="translate(-2838.39 -3284.51)"/><path class="cls-9" d="M3885.55,4032.61a20.79,20.79,0,0,1,11.13-3.19,417,417,0,0,1-11.19-43.26c-9.06-43.14.31-77,9.23-97.36a13.27,13.27,0,0,1-8.53,3.89c-9.29,20-20.16,55.05-10.63,100.45C3878.91,4009.06,3882.27,4022,3885.55,4032.61Z" transform="translate(-2838.39 -3284.51)"/><path class="cls-10" d="M3872.52,3897.07c1.9,4.79,19.14,2.95,36.86-4.11s29.21-16.65,27.3-21.43-19.14-2.95-36.86,4.11S3870.62,3892.29,3872.52,3897.07Z" transform="translate(-2838.39 -3284.51)"/><path class="cls-8" d="M3976.76,4081.3s24.42-8,39.52-37.3,28.42-58.61,20.43-87-42.63-27.53-55.95-24.87-63.94,14.21-63.94,64.83,14.21,71,24.87,79S3962.1,4085.74,3976.76,4081.3Z" transform="translate(-2838.39 -3284.51)"/><path class="cls-9" d="M3940.7,4007.42c0-26.33,17.75-38.94,32.46-45a23.58,23.58,0,0,1-3.16-4.85c-15,4.14-42.14,15.74-42.14,48.31,0,39,11,54.8,19.18,61,6.36,4.77,12.32,6.66,19.93,5.68a32.44,32.44,0,0,1-7.09-4.14C3951.67,4062.22,3940.7,4046.47,3940.7,4007.42Z" transform="translate(-2838.39 -3284.51)"/><path class="cls-10" d="M3944.75,3963.69c1.45,4.94,17.46,4.57,35.76-.82s30.61-13.77,29.15-18.71-17.46-4.57-35.76.82S3943.29,3958.75,3944.75,3963.69Z" transform="translate(-2838.39 -3284.51)"/><path class="cls-8" d="M3866.53,4081.06s-19.4-.68-34.52-21.24c-13.3-18.08-24.15-34.61-22.9-54.92,1.17-19.12,19.51-29.39,27.27-32.19,8-2.91,41.73-14.11,53.87,19.69,14.34,39.92,8.87,62.8,2.46,73.54S3879,4081.16,3866.53,4081.06Z" transform="translate(-2838.39 -3284.51)"/><path class="cls-9" d="M3869.78,4065.81c-8.09-1.75-21.42-9.6-34.55-38.19-9.06-19.72.31-35.18,9.23-44.51a22.8,22.8,0,0,1-8.53,1.78c-9.29,9.13-20.16,25.17-10.62,45.93,13.13,28.59,26.46,36.44,34.55,38.19,6.27,1.35,11.27.73,16.51-2.54A26.27,26.27,0,0,1,3869.78,4065.81Z" transform="translate(-2838.39 -3284.51)"/><path class="cls-10" d="M3864.85,3980.73c0,3.68-11.51,9-23.52,11.65-11.36,2.52-17.31,1.7-17.13-1.69s7.61-9.54,18.76-12.36C3854.74,3975.37,3864.81,3977.09,3864.85,3980.73Z" transform="translate(-2838.39 -3284.51)"/><path class="cls-11" d="M4066.91,4118.05s16.91-7.32,25.76-29.24,10.3-92.73,2.71-112.49-32.25-16.85-41.59-14.06-44.72,14.37-41.38,50.51,21,98.79,29.1,103.79S4056.73,4122.19,4066.91,4118.05Z" transform="translate(-2838.39 -3284.51)"/><path class="cls-11" d="M4028.95,3984.43c1.37,3.43,13.73,2.11,26.43-2.94s20.95-11.94,19.58-15.37-13.73-2.11-26.43,2.94S4027.58,3981,4028.95,3984.43Z" transform="translate(-2838.39 -3284.51)"/><path class="cls-11" d="M4103.69,4117.49s17.51-5.73,28.34-26.75,20.38-42,14.65-62.41-30.57-19.74-40.12-17.83-45.85,10.19-45.85,46.49,10.19,50.95,17.83,56.68S4093.18,4120.67,4103.69,4117.49Z" transform="translate(-2838.39 -3284.51)"/><path class="cls-11" d="M4080.74,4030.29c1,3.54,12.52,3.28,25.64-.59s21.95-9.87,20.9-13.41-12.52-3.28-25.64.59S4079.7,4026.75,4080.74,4030.29Z" transform="translate(-2838.39 -3284.51)"/><path class="cls-11" d="M4024.65,4117.31s-13.91-.49-24.75-15.23c-9.54-13-17.32-24.82-16.42-39.38,0.84-13.71,14-21.07,19.55-23.09,5.76-2.08,29.92-10.12,38.63,14.12,10.28,28.63,6.36,45,1.77,52.73S4033.57,4117.39,4024.65,4117.31Z" transform="translate(-2838.39 -3284.51)"/><path class="cls-12" d="M4066.91,4118.05s16.91-7.32,25.76-29.24,10.3-92.73,2.71-112.49-32.25-16.85-41.59-14.06-44.72,14.37-41.38,50.51,21,98.79,29.1,103.79S4056.73,4122.19,4066.91,4118.05Z" transform="translate(-2838.39 -3284.51)"/><path class="cls-13" d="M4038.29,4082.57a14.91,14.91,0,0,1,8-2.29,299.2,299.2,0,0,1-8-31c-6.5-30.93.22-55.18,6.62-69.82a9.51,9.51,0,0,1-6.12,2.79c-6.66,14.32-14.45,39.48-7.62,72C4033.53,4065.69,4035.93,4075,4038.29,4082.57Z" transform="translate(-2838.39 -3284.51)"/><path class="cls-10" d="M4028.95,3985.38c1.37,3.43,13.73,2.11,26.43-2.94s20.95-11.94,19.58-15.37-13.73-2.11-26.43,2.94S4027.58,3982,4028.95,3985.38Z" transform="translate(-2838.39 -3284.51)"/><path class="cls-12" d="M4103.69,4117.49s17.51-5.73,28.34-26.75,20.38-42,14.65-62.41-30.57-19.74-40.12-17.83-45.85,10.19-45.85,46.49,10.19,50.95,17.83,56.68S4093.18,4120.67,4103.69,4117.49Z" transform="translate(-2838.39 -3284.51)"/><path class="cls-13" d="M4077.84,4064.51c0-18.88,12.72-27.92,23.28-32.27a16.92,16.92,0,0,1-2.27-3.48c-10.74,3-30.22,11.28-30.22,34.64,0,28,7.86,39.3,13.76,43.72,4.56,3.42,8.84,4.78,14.29,4.08a23.24,23.24,0,0,1-5.08-3C4085.7,4103.81,4077.84,4092.51,4077.84,4064.51Z" transform="translate(-2838.39 -3284.51)"/><path class="cls-10" d="M4080.74,4033.15c1,3.54,12.52,3.28,25.64-.59s21.95-9.87,20.9-13.41-12.52-3.28-25.64.59S4079.7,4029.61,4080.74,4033.15Z" transform="translate(-2838.39 -3284.51)"/><path class="cls-12" d="M4024.65,4117.31s-13.91-.49-24.75-15.23c-9.54-13-17.32-24.82-16.42-39.38,0.84-13.71,14-21.07,19.55-23.09,5.76-2.08,29.92-10.12,38.63,14.12,10.28,28.63,6.36,45,1.77,52.73S4033.57,4117.39,4024.65,4117.31Z" transform="translate(-2838.39 -3284.51)"/><path class="cls-13" d="M4027,4106.38c-5.81-1.26-15.36-6.88-24.78-27.39-6.5-14.14.22-25.23,6.62-31.92a16.34,16.34,0,0,1-6.12,1.28c-6.66,6.55-14.46,18-7.62,32.93,9.42,20.5,19,26.13,24.78,27.39,4.49,1,8.08.52,11.84-1.82A18.86,18.86,0,0,1,4027,4106.38Z" transform="translate(-2838.39 -3284.51)"/><path class="cls-10" d="M4023.44,4045.37c0,2.64-8.25,6.44-16.86,8.35-8.14,1.81-12.41,1.22-12.28-1.21s5.45-6.84,13.45-8.86C4016.19,4041.53,4023.42,4042.76,4023.44,4045.37Z" transform="translate(-2838.39 -3284.51)"/></g></g></g></svg>